SplineFontDB: 3.2
FontName: Polwgo
FullName: Polwgo
FamilyName: Polwgo
Weight: Regular
Copyright: Copyright (c) 2024, W.F.Turnip
UComments: "2024-6-10: Created with FontForge (http://fontforge.org)"
Version: 001.000
ItalicAngle: 0
UnderlinePosition: -100
UnderlineWidth: 50
Ascent: 650
Descent: 200
InvalidEm: 0
LayerCount: 2
Layer: 0 1 "+gMyXYgAA" 1
Layer: 1 1 "+Uk2XYgAA" 0
XUID: [1021 352 -730677569 15807548]
OS2Version: 0
OS2_WeightWidthSlopeOnly: 0
OS2_UseTypoMetrics: 1
CreationTime: 1717996835
ModificationTime: 1762064705
OS2TypoAscent: 0
OS2TypoAOffset: 1
OS2TypoDescent: 0
OS2TypoDOffset: 1
OS2TypoLinegap: 0
OS2WinAscent: 0
OS2WinAOffset: 1
OS2WinDescent: 0
OS2WinDOffset: 1
HheadAscent: 0
HheadAOffset: 1
HheadDescent: 0
HheadDOffset: 1
OS2Vendor: 'PfEd'
Lookup: 260 0 0 "mark" { "mark-1"  } ['mark' ('latn' <'dflt' > ) ]
MarkAttachClasses: 1
DEI: 91125
Encoding: UnicodeBmp
UnicodeInterp: none
NameList: AGL For New Fonts
DisplaySize: -48
AntiAlias: 1
FitToEm: 0
WinInfo: 0 14 10
BeginPrivate: 0
EndPrivate
AnchorClass2: "vowel" "mark-1"
BeginChars: 65536 96

StartChar: exclam
Encoding: 33 33 1
Width: 500
Flags: W
LayerCount: 2
Fore
SplineSet
225 450 m 1,0,-1
 275 450 l 1,1,-1
 275 400 l 1,2,-1
 225 400 l 1,3,-1
 225 450 l 1,0,-1
225 50 m 1,4,-1
 275 50 l 1,5,-1
 275 0 l 1,6,-1
 225 0 l 1,7,-1
 225 50 l 1,4,-1
EndSplineSet
EndChar

StartChar: quotedbl
Encoding: 34 34 2
Width: 500
Flags: W
LayerCount: 2
Fore
SplineSet
25 250 m 1,0,-1
 75 250 l 1,1,-1
 75 200 l 1,2,-1
 25 200 l 1,3,-1
 25 250 l 1,0,-1
425 250 m 1,4,-1
 475 250 l 1,5,-1
 475 200 l 1,6,-1
 425 200 l 1,7,-1
 425 250 l 1,4,-1
EndSplineSet
EndChar

StartChar: numbersign
Encoding: 35 35 3
Width: 500
Flags: W
LayerCount: 2
Fore
SplineSet
475 100 m 1,0,-1
 375 0 l 1,1,-1
 325 0 l 1,2,-1
 325 50 l 1,3,-1
 425 150 l 1,4,-1
 475 150 l 1,5,-1
 475 100 l 1,0,-1
125 0 m 1,6,-1
 25 100 l 1,7,-1
 25 150 l 1,8,-1
 75 150 l 1,9,-1
 175 50 l 1,10,-1
 175 0 l 1,11,-1
 125 0 l 1,6,-1
25 350 m 1,12,-1
 125 450 l 1,13,-1
 175 450 l 1,14,-1
 175 400 l 1,15,-1
 75 300 l 1,16,-1
 25 300 l 1,17,-1
 25 350 l 1,12,-1
375 450 m 1,18,-1
 475 350 l 1,19,-1
 475 300 l 1,20,-1
 425 300 l 1,21,-1
 325 400 l 1,22,-1
 325 450 l 1,23,-1
 375 450 l 1,18,-1
375 0 m 1,24,-1
 125 0 l 1,25,-1
 125 50 l 1,26,-1
 375 50 l 1,27,-1
 375 0 l 1,24,-1
25 100 m 1,28,-1
 25 350 l 1,29,-1
 75 350 l 1,30,-1
 75 100 l 1,31,-1
 25 100 l 1,28,-1
125 450 m 1,32,-1
 375 450 l 1,33,-1
 375 400 l 1,34,-1
 125 400 l 1,35,-1
 125 450 l 1,32,-1
175 350 m 1,36,-1
 175 300 l 1,37,-1
 125 300 l 1,38,-1
 25 400 l 1,39,-1
 25 450 l 1,40,-1
 75 450 l 1,41,-1
 175 350 l 1,36,-1
275 250 m 1,42,-1
 275 200 l 1,43,-1
 225 200 l 1,44,-1
 125 300 l 1,45,-1
 125 350 l 1,46,-1
 175 350 l 1,47,-1
 275 250 l 1,42,-1
325 100 m 1,48,-1
 325 150 l 1,49,-1
 375 150 l 1,50,-1
 475 50 l 1,51,-1
 475 0 l 1,52,-1
 425 0 l 1,53,-1
 325 100 l 1,48,-1
225 200 m 1,54,-1
 225 250 l 1,55,-1
 275 250 l 1,56,-1
 375 150 l 1,57,-1
 375 100 l 1,58,-1
 325 100 l 1,59,-1
 225 200 l 1,54,-1
225 450 m 1,60,-1
 275 450 l 1,61,-1
 275 0 l 1,62,-1
 225 0 l 1,63,-1
 225 450 l 1,60,-1
225 650 m 1,64,-1
 275 650 l 1,65,-1
 275 -200 l 1,66,-1
 225 -200 l 1,67,-1
 225 650 l 1,64,-1
EndSplineSet
EndChar

StartChar: dollar
Encoding: 36 36 4
Width: 500
Flags: W
LayerCount: 2
Fore
SplineSet
375 450 m 1,0,-1
 475 350 l 1,1,-1
 475 300 l 1,2,-1
 425 300 l 1,3,-1
 325 400 l 1,4,-1
 325 450 l 1,5,-1
 375 450 l 1,0,-1
25 350 m 1,6,-1
 125 450 l 1,7,-1
 175 450 l 1,8,-1
 175 400 l 1,9,-1
 75 300 l 1,10,-1
 25 300 l 1,11,-1
 25 350 l 1,6,-1
125 0 m 1,12,-1
 25 100 l 1,13,-1
 25 150 l 1,14,-1
 75 150 l 1,15,-1
 175 50 l 1,16,-1
 175 0 l 1,17,-1
 125 0 l 1,12,-1
475 100 m 1,18,-1
 375 0 l 1,19,-1
 325 0 l 1,20,-1
 325 50 l 1,21,-1
 425 150 l 1,22,-1
 475 150 l 1,23,-1
 475 100 l 1,18,-1
125 450 m 1,24,-1
 375 450 l 1,25,-1
 375 400 l 1,26,-1
 125 400 l 1,27,-1
 125 450 l 1,24,-1
375 0 m 1,28,-1
 125 0 l 1,29,-1
 125 50 l 1,30,-1
 375 50 l 1,31,-1
 375 0 l 1,28,-1
175 350 m 1,32,-1
 175 300 l 1,33,-1
 125 300 l 1,34,-1
 25 400 l 1,35,-1
 25 450 l 1,36,-1
 75 450 l 1,37,-1
 175 350 l 1,32,-1
325 100 m 1,38,-1
 325 150 l 1,39,-1
 375 150 l 1,40,-1
 475 50 l 1,41,-1
 475 0 l 1,42,-1
 425 0 l 1,43,-1
 325 100 l 1,38,-1
275 250 m 1,44,-1
 275 200 l 1,45,-1
 225 200 l 1,46,-1
 125 300 l 1,47,-1
 125 350 l 1,48,-1
 175 350 l 1,49,-1
 275 250 l 1,44,-1
225 200 m 1,50,-1
 225 250 l 1,51,-1
 275 250 l 1,52,-1
 375 150 l 1,53,-1
 375 100 l 1,54,-1
 325 100 l 1,55,-1
 225 200 l 1,50,-1
225 450 m 1,56,-1
 275 450 l 1,57,-1
 275 0 l 1,58,-1
 225 0 l 1,59,-1
 225 450 l 1,56,-1
225 650 m 1,60,-1
 275 650 l 1,61,-1
 275 -200 l 1,62,-1
 225 -200 l 1,63,-1
 225 650 l 1,60,-1
EndSplineSet
EndChar

StartChar: percent
Encoding: 37 37 5
Width: 500
Flags: W
LayerCount: 2
Fore
SplineSet
425 450 m 1,0,-1
 475 450 l 1,1,-1
 475 400 l 1,2,-1
 375 300 l 1,3,-1
 375 150 l 1,4,-1
 375 100 l 1,5,-1
 325 100 l 1,6,-1
 175 100 l 1,7,-1
 75 0 l 1,8,-1
 25 0 l 1,9,-1
 25 50 l 1,10,-1
 125 150 l 1,11,-1
 125 300 l 1,12,-1
 125 350 l 1,13,-1
 175 350 l 1,14,-1
 325 350 l 1,15,-1
 425 450 l 1,0,-1
175 300 m 1,16,-1
 175 200 l 1,17,-1
 225 250 l 1,18,-1
 275 300 l 1,19,-1
 175 300 l 1,16,-1
325 250 m 1,20,-1
 275 200 l 1,21,-1
 225 150 l 1,22,-1
 325 150 l 1,23,-1
 325 250 l 1,20,-1
EndSplineSet
EndChar

StartChar: ampersand
Encoding: 38 38 6
Width: 500
Flags: W
LayerCount: 2
Fore
SplineSet
375 450 m 1,0,-1
 475 350 l 1,1,-1
 475 300 l 1,2,-1
 425 300 l 1,3,-1
 325 400 l 1,4,-1
 325 450 l 1,5,-1
 375 450 l 1,0,-1
25 350 m 1,6,-1
 125 450 l 1,7,-1
 175 450 l 1,8,-1
 175 400 l 1,9,-1
 75 300 l 1,10,-1
 25 300 l 1,11,-1
 25 350 l 1,6,-1
125 0 m 1,12,-1
 25 100 l 1,13,-1
 25 150 l 1,14,-1
 75 150 l 1,15,-1
 175 50 l 1,16,-1
 175 0 l 1,17,-1
 125 0 l 1,12,-1
475 100 m 1,18,-1
 375 0 l 1,19,-1
 325 0 l 1,20,-1
 325 50 l 1,21,-1
 425 150 l 1,22,-1
 475 150 l 1,23,-1
 475 100 l 1,18,-1
125 450 m 1,24,-1
 375 450 l 1,25,-1
 375 400 l 1,26,-1
 125 400 l 1,27,-1
 125 450 l 1,24,-1
375 0 m 1,28,-1
 125 0 l 1,29,-1
 125 50 l 1,30,-1
 375 50 l 1,31,-1
 375 0 l 1,28,-1
475 350 m 1,32,-1
 475 100 l 1,33,-1
 425 100 l 1,34,-1
 425 350 l 1,35,-1
 475 350 l 1,32,-1
375 350 m 1,36,-1
 375 300 l 1,37,-1
 125 300 l 1,38,-1
 125 350 l 1,39,-1
 375 350 l 1,36,-1
375 100 m 1,40,-1
 325 100 l 1,41,-1
 325 350 l 1,42,-1
 375 350 l 1,43,-1
 375 100 l 1,40,-1
125 100 m 1,44,-1
 125 150 l 1,45,-1
 375 150 l 1,46,-1
 375 100 l 1,47,-1
 125 100 l 1,44,-1
225 250 m 1,48,-1
 275 250 l 1,49,-1
 275 200 l 1,50,-1
 225 200 l 1,51,-1
 225 250 l 1,48,-1
EndSplineSet
EndChar

StartChar: quotesingle
Encoding: 39 39 7
Width: 500
Flags: W
LayerCount: 2
Fore
SplineSet
225 250 m 1,0,-1
 275 250 l 1,1,-1
 275 200 l 1,2,-1
 225 200 l 1,3,-1
 225 250 l 1,0,-1
EndSplineSet
EndChar

StartChar: parenleft
Encoding: 40 40 8
Width: 500
Flags: W
LayerCount: 2
Fore
SplineSet
125 100 m 1,0,-1
 125 150 l 1,1,-1
 175 150 l 1,2,-1
 275 50 l 1,3,-1
 275 0 l 1,4,-1
 225 0 l 1,5,-1
 125 100 l 1,0,-1
125 350 m 1,6,-1
 225 450 l 1,7,-1
 275 450 l 1,8,-1
 275 400 l 1,9,-1
 175 300 l 1,10,-1
 125 300 l 1,11,-1
 125 350 l 1,6,-1
225 0 m 1,12,-1
 225 50 l 1,13,-1
 275 50 l 1,14,-1
 375 -50 l 1,15,-1
 375 -100 l 1,16,-1
 325 -100 l 1,17,-1
 225 0 l 1,12,-1
225 450 m 1,18,-1
 325 550 l 1,19,-1
 375 550 l 1,20,-1
 375 500 l 1,21,-1
 275 400 l 1,22,-1
 225 400 l 1,23,-1
 225 450 l 1,18,-1
125 350 m 1,24,-1
 175 350 l 1,25,-1
 175 100 l 1,26,-1
 125 100 l 1,27,-1
 125 350 l 1,24,-1
EndSplineSet
EndChar

StartChar: parenright
Encoding: 41 41 9
Width: 500
Flags: W
LayerCount: 2
Fore
SplineSet
125 500 m 1,0,-1
 125 550 l 1,1,-1
 175 550 l 1,2,-1
 275 450 l 1,3,-1
 275 400 l 1,4,-1
 225 400 l 1,5,-1
 125 500 l 1,0,-1
225 400 m 1,6,-1
 225 450 l 1,7,-1
 275 450 l 1,8,-1
 375 350 l 1,9,-1
 375 300 l 1,10,-1
 325 300 l 1,11,-1
 225 400 l 1,6,-1
125 -50 m 1,12,-1
 225 50 l 1,13,-1
 275 50 l 1,14,-1
 275 0 l 1,15,-1
 175 -100 l 1,16,-1
 125 -100 l 1,17,-1
 125 -50 l 1,12,-1
225 50 m 1,18,-1
 325 150 l 1,19,-1
 375 150 l 1,20,-1
 375 100 l 1,21,-1
 275 0 l 1,22,-1
 225 0 l 1,23,-1
 225 50 l 1,18,-1
325 350 m 1,24,-1
 375 350 l 1,25,-1
 375 100 l 1,26,-1
 325 100 l 1,27,-1
 325 350 l 1,24,-1
EndSplineSet
EndChar

StartChar: asterisk
Encoding: 42 42 10
Width: 500
Flags: W
LayerCount: 2
Fore
SplineSet
225 450 m 1,0,-1
 275 450 l 1,1,-1
 275 0 l 1,2,-1
 225 0 l 1,3,-1
 225 450 l 1,0,-1
275 250 m 1,4,-1
 275 200 l 1,5,-1
 225 200 l 1,6,-1
 125 300 l 1,7,-1
 125 350 l 1,8,-1
 175 350 l 1,9,-1
 275 250 l 1,4,-1
225 200 m 1,10,-1
 225 250 l 1,11,-1
 275 250 l 1,12,-1
 375 150 l 1,13,-1
 375 100 l 1,14,-1
 325 100 l 1,15,-1
 225 200 l 1,10,-1
225 250 m 1,16,-1
 325 350 l 1,17,-1
 375 350 l 1,18,-1
 375 300 l 1,19,-1
 275 200 l 1,20,-1
 225 200 l 1,21,-1
 225 250 l 1,16,-1
125 150 m 1,22,-1
 225 250 l 1,23,-1
 275 250 l 1,24,-1
 275 200 l 1,25,-1
 175 100 l 1,26,-1
 125 100 l 1,27,-1
 125 150 l 1,22,-1
EndSplineSet
EndChar

StartChar: plus
Encoding: 43 43 11
Width: 500
Flags: W
LayerCount: 2
Fore
SplineSet
225 450 m 1,0,-1
 275 450 l 1,1,-1
 275 0 l 1,2,-1
 225 0 l 1,3,-1
 225 450 l 1,0,-1
25 250 m 1,4,-1
 475 250 l 1,5,-1
 475 200 l 1,6,-1
 25 200 l 1,7,-1
 25 250 l 1,4,-1
EndSplineSet
EndChar

StartChar: comma
Encoding: 44 44 12
Width: 500
Flags: W
LayerCount: 2
Fore
SplineSet
25 250 m 1,0,-1
 75 250 l 1,1,-1
 75 200 l 1,2,-1
 25 200 l 1,3,-1
 25 250 l 1,0,-1
225 250 m 1,4,-1
 275 250 l 1,5,-1
 275 200 l 1,6,-1
 225 200 l 1,7,-1
 225 250 l 1,4,-1
425 250 m 1,8,-1
 475 250 l 1,9,-1
 475 200 l 1,10,-1
 425 200 l 1,11,-1
 425 250 l 1,8,-1
EndSplineSet
EndChar

StartChar: hyphen
Encoding: 45 45 13
Width: 500
Flags: W
LayerCount: 2
Fore
SplineSet
25 250 m 1,0,-1
 475 250 l 1,1,-1
 475 200 l 1,2,-1
 25 200 l 1,3,-1
 25 250 l 1,0,-1
EndSplineSet
EndChar

StartChar: period
Encoding: 46 46 14
Width: 500
Flags: W
LayerCount: 2
Fore
SplineSet
225 450 m 1,0,-1
 275 450 l 1,1,-1
 275 400 l 1,2,-1
 225 400 l 1,3,-1
 225 450 l 1,0,-1
25 250 m 1,4,-1
 75 250 l 1,5,-1
 75 200 l 1,6,-1
 25 200 l 1,7,-1
 25 250 l 1,4,-1
225 250 m 1,8,-1
 275 250 l 1,9,-1
 275 200 l 1,10,-1
 225 200 l 1,11,-1
 225 250 l 1,8,-1
425 250 m 1,12,-1
 475 250 l 1,13,-1
 475 200 l 1,14,-1
 425 200 l 1,15,-1
 425 250 l 1,12,-1
225 50 m 1,16,-1
 275 50 l 1,17,-1
 275 0 l 1,18,-1
 225 0 l 1,19,-1
 225 50 l 1,16,-1
EndSplineSet
EndChar

StartChar: slash
Encoding: 47 47 15
Width: 500
Flags: W
LayerCount: 2
Fore
SplineSet
425 450 m 1,0,-1
 475 450 l 1,1,-1
 475 400 l 1,2,-1
 375 300 l 1,3,-1
 275 200 l 1,4,-1
 175 100 l 1,5,-1
 75 0 l 1,6,-1
 25 0 l 1,7,-1
 25 50 l 1,8,-1
 125 150 l 1,9,-1
 225 250 l 1,10,-1
 325 350 l 1,11,-1
 425 450 l 1,0,-1
EndSplineSet
EndChar

StartChar: zero
Encoding: 48 48 16
Width: 500
Flags: W
LayerCount: 2
Fore
SplineSet
125 350 m 1,0,-1
 175 350 l 1,1,-1
 375 350 l 1,2,-1
 375 300 l 1,3,-1
 375 150 l 1,4,-1
 375 100 l 1,5,-1
 325 100 l 1,6,-1
 125 100 l 1,7,-1
 125 150 l 1,8,-1
 125 300 l 1,9,-1
 125 350 l 1,0,-1
175 300 m 1,10,-1
 175 150 l 1,11,-1
 325 150 l 1,12,-1
 325 300 l 1,13,-1
 175 300 l 1,10,-1
EndSplineSet
EndChar

StartChar: one
Encoding: 49 49 17
Width: 500
Flags: W
LayerCount: 2
Fore
SplineSet
475 100 m 1,0,-1
 375 0 l 1,1,-1
 325 0 l 1,2,-1
 325 50 l 1,3,-1
 425 150 l 1,4,-1
 475 150 l 1,5,-1
 475 100 l 1,0,-1
125 0 m 1,6,-1
 25 100 l 1,7,-1
 25 150 l 1,8,-1
 75 150 l 1,9,-1
 175 50 l 1,10,-1
 175 0 l 1,11,-1
 125 0 l 1,6,-1
375 450 m 1,12,-1
 475 350 l 1,13,-1
 475 300 l 1,14,-1
 425 300 l 1,15,-1
 325 400 l 1,16,-1
 325 450 l 1,17,-1
 375 450 l 1,12,-1
475 350 m 1,18,-1
 475 100 l 1,19,-1
 425 100 l 1,20,-1
 425 350 l 1,21,-1
 475 350 l 1,18,-1
375 0 m 1,22,-1
 125 0 l 1,23,-1
 125 50 l 1,24,-1
 375 50 l 1,25,-1
 375 0 l 1,22,-1
25 100 m 1,26,-1
 25 250 l 1,27,-1
 75 250 l 1,28,-1
 75 100 l 1,29,-1
 25 100 l 1,26,-1
225 450 m 1,30,-1
 375 450 l 1,31,-1
 375 400 l 1,32,-1
 225 400 l 1,33,-1
 225 450 l 1,30,-1
125 350 m 1,34,-1
 175 350 l 1,35,-1
 375 350 l 1,36,-1
 375 300 l 1,37,-1
 375 150 l 1,38,-1
 375 100 l 1,39,-1
 325 100 l 1,40,-1
 125 100 l 1,41,-1
 125 150 l 1,42,-1
 125 300 l 1,43,-1
 125 350 l 1,34,-1
175 300 m 1,44,-1
 175 150 l 1,45,-1
 325 150 l 1,46,-1
 325 300 l 1,47,-1
 175 300 l 1,44,-1
EndSplineSet
EndChar

StartChar: two
Encoding: 50 50 18
Width: 500
Flags: W
LayerCount: 2
Fore
SplineSet
475 100 m 1,0,-1
 375 0 l 1,1,-1
 325 0 l 1,2,-1
 325 50 l 1,3,-1
 425 150 l 1,4,-1
 475 150 l 1,5,-1
 475 100 l 1,0,-1
125 0 m 1,6,-1
 25 100 l 1,7,-1
 25 150 l 1,8,-1
 75 150 l 1,9,-1
 175 50 l 1,10,-1
 175 0 l 1,11,-1
 125 0 l 1,6,-1
25 350 m 1,12,-1
 125 450 l 1,13,-1
 175 450 l 1,14,-1
 175 400 l 1,15,-1
 75 300 l 1,16,-1
 25 300 l 1,17,-1
 25 350 l 1,12,-1
375 450 m 1,18,-1
 475 350 l 1,19,-1
 475 300 l 1,20,-1
 425 300 l 1,21,-1
 325 400 l 1,22,-1
 325 450 l 1,23,-1
 375 450 l 1,18,-1
475 350 m 1,24,-1
 475 100 l 1,25,-1
 425 100 l 1,26,-1
 425 350 l 1,27,-1
 475 350 l 1,24,-1
375 0 m 1,28,-1
 125 0 l 1,29,-1
 125 50 l 1,30,-1
 375 50 l 1,31,-1
 375 0 l 1,28,-1
25 100 m 1,32,-1
 25 350 l 1,33,-1
 75 350 l 1,34,-1
 75 100 l 1,35,-1
 25 100 l 1,32,-1
125 350 m 1,36,-1
 175 350 l 1,37,-1
 375 350 l 1,38,-1
 375 300 l 1,39,-1
 375 150 l 1,40,-1
 375 100 l 1,41,-1
 325 100 l 1,42,-1
 125 100 l 1,43,-1
 125 150 l 1,44,-1
 125 300 l 1,45,-1
 125 350 l 1,36,-1
175 300 m 1,46,-1
 175 150 l 1,47,-1
 325 150 l 1,48,-1
 325 300 l 1,49,-1
 175 300 l 1,46,-1
EndSplineSet
EndChar

StartChar: three
Encoding: 51 51 19
Width: 500
Flags: W
LayerCount: 2
Fore
SplineSet
475 100 m 1,0,-1
 375 0 l 1,1,-1
 325 0 l 1,2,-1
 325 50 l 1,3,-1
 425 150 l 1,4,-1
 475 150 l 1,5,-1
 475 100 l 1,0,-1
125 0 m 1,6,-1
 25 100 l 1,7,-1
 25 150 l 1,8,-1
 75 150 l 1,9,-1
 175 50 l 1,10,-1
 175 0 l 1,11,-1
 125 0 l 1,6,-1
25 350 m 1,12,-1
 125 450 l 1,13,-1
 175 450 l 1,14,-1
 175 400 l 1,15,-1
 75 300 l 1,16,-1
 25 300 l 1,17,-1
 25 350 l 1,12,-1
475 250 m 1,18,-1
 475 100 l 1,19,-1
 425 100 l 1,20,-1
 425 250 l 1,21,-1
 475 250 l 1,18,-1
375 0 m 1,22,-1
 125 0 l 1,23,-1
 125 50 l 1,24,-1
 375 50 l 1,25,-1
 375 0 l 1,22,-1
25 100 m 1,26,-1
 25 350 l 1,27,-1
 75 350 l 1,28,-1
 75 100 l 1,29,-1
 25 100 l 1,26,-1
125 450 m 1,30,-1
 275 450 l 1,31,-1
 275 400 l 1,32,-1
 125 400 l 1,33,-1
 125 450 l 1,30,-1
125 350 m 1,34,-1
 175 350 l 1,35,-1
 375 350 l 1,36,-1
 375 300 l 1,37,-1
 375 150 l 1,38,-1
 375 100 l 1,39,-1
 325 100 l 1,40,-1
 125 100 l 1,41,-1
 125 150 l 1,42,-1
 125 300 l 1,43,-1
 125 350 l 1,34,-1
175 300 m 1,44,-1
 175 150 l 1,45,-1
 325 150 l 1,46,-1
 325 300 l 1,47,-1
 175 300 l 1,44,-1
EndSplineSet
EndChar

StartChar: four
Encoding: 52 52 20
Width: 500
Flags: W
LayerCount: 2
Fore
SplineSet
475 100 m 1,0,-1
 375 0 l 1,1,-1
 325 0 l 1,2,-1
 325 50 l 1,3,-1
 425 150 l 1,4,-1
 475 150 l 1,5,-1
 475 100 l 1,0,-1
125 0 m 1,6,-1
 25 100 l 1,7,-1
 25 150 l 1,8,-1
 75 150 l 1,9,-1
 175 50 l 1,10,-1
 175 0 l 1,11,-1
 125 0 l 1,6,-1
25 350 m 1,12,-1
 125 450 l 1,13,-1
 175 450 l 1,14,-1
 175 400 l 1,15,-1
 75 300 l 1,16,-1
 25 300 l 1,17,-1
 25 350 l 1,12,-1
375 450 m 1,18,-1
 475 350 l 1,19,-1
 475 300 l 1,20,-1
 425 300 l 1,21,-1
 325 400 l 1,22,-1
 325 450 l 1,23,-1
 375 450 l 1,18,-1
475 350 m 1,24,-1
 475 100 l 1,25,-1
 425 100 l 1,26,-1
 425 350 l 1,27,-1
 475 350 l 1,24,-1
375 0 m 1,28,-1
 125 0 l 1,29,-1
 125 50 l 1,30,-1
 375 50 l 1,31,-1
 375 0 l 1,28,-1
125 450 m 1,32,-1
 375 450 l 1,33,-1
 375 400 l 1,34,-1
 125 400 l 1,35,-1
 125 450 l 1,32,-1
125 350 m 1,36,-1
 175 350 l 1,37,-1
 375 350 l 1,38,-1
 375 300 l 1,39,-1
 375 150 l 1,40,-1
 375 100 l 1,41,-1
 325 100 l 1,42,-1
 125 100 l 1,43,-1
 125 150 l 1,44,-1
 125 300 l 1,45,-1
 125 350 l 1,36,-1
175 300 m 1,46,-1
 175 150 l 1,47,-1
 325 150 l 1,48,-1
 325 300 l 1,49,-1
 175 300 l 1,46,-1
EndSplineSet
EndChar

StartChar: five
Encoding: 53 53 21
Width: 500
Flags: W
LayerCount: 2
Fore
SplineSet
475 100 m 1,0,-1
 375 0 l 1,1,-1
 325 0 l 1,2,-1
 325 50 l 1,3,-1
 425 150 l 1,4,-1
 475 150 l 1,5,-1
 475 100 l 1,0,-1
125 0 m 1,6,-1
 25 100 l 1,7,-1
 25 150 l 1,8,-1
 75 150 l 1,9,-1
 175 50 l 1,10,-1
 175 0 l 1,11,-1
 125 0 l 1,6,-1
25 350 m 1,12,-1
 125 450 l 1,13,-1
 175 450 l 1,14,-1
 175 400 l 1,15,-1
 75 300 l 1,16,-1
 25 300 l 1,17,-1
 25 350 l 1,12,-1
375 450 m 1,18,-1
 475 350 l 1,19,-1
 475 300 l 1,20,-1
 425 300 l 1,21,-1
 325 400 l 1,22,-1
 325 450 l 1,23,-1
 375 450 l 1,18,-1
475 350 m 1,24,-1
 475 100 l 1,25,-1
 425 100 l 1,26,-1
 425 350 l 1,27,-1
 475 350 l 1,24,-1
375 0 m 1,28,-1
 125 0 l 1,29,-1
 125 50 l 1,30,-1
 375 50 l 1,31,-1
 375 0 l 1,28,-1
25 100 m 1,32,-1
 25 350 l 1,33,-1
 75 350 l 1,34,-1
 75 100 l 1,35,-1
 25 100 l 1,32,-1
125 450 m 1,36,-1
 375 450 l 1,37,-1
 375 400 l 1,38,-1
 125 400 l 1,39,-1
 125 450 l 1,36,-1
125 350 m 1,40,-1
 175 350 l 1,41,-1
 375 350 l 1,42,-1
 375 300 l 1,43,-1
 375 150 l 1,44,-1
 375 100 l 1,45,-1
 325 100 l 1,46,-1
 125 100 l 1,47,-1
 125 150 l 1,48,-1
 125 300 l 1,49,-1
 125 350 l 1,40,-1
175 300 m 1,50,-1
 175 150 l 1,51,-1
 325 150 l 1,52,-1
 325 300 l 1,53,-1
 175 300 l 1,50,-1
EndSplineSet
EndChar

StartChar: six
Encoding: 54 54 22
Width: 500
Flags: W
LayerCount: 2
Fore
SplineSet
475 100 m 1,0,-1
 375 0 l 1,1,-1
 325 0 l 1,2,-1
 325 50 l 1,3,-1
 425 150 l 1,4,-1
 475 150 l 1,5,-1
 475 100 l 1,0,-1
125 0 m 1,6,-1
 25 100 l 1,7,-1
 25 150 l 1,8,-1
 75 150 l 1,9,-1
 175 50 l 1,10,-1
 175 0 l 1,11,-1
 125 0 l 1,6,-1
25 350 m 1,12,-1
 125 450 l 1,13,-1
 175 450 l 1,14,-1
 175 400 l 1,15,-1
 75 300 l 1,16,-1
 25 300 l 1,17,-1
 25 350 l 1,12,-1
375 450 m 1,18,-1
 475 350 l 1,19,-1
 475 300 l 1,20,-1
 425 300 l 1,21,-1
 325 400 l 1,22,-1
 325 450 l 1,23,-1
 375 450 l 1,18,-1
375 0 m 1,24,-1
 125 0 l 1,25,-1
 125 50 l 1,26,-1
 375 50 l 1,27,-1
 375 0 l 1,24,-1
25 100 m 1,28,-1
 25 350 l 1,29,-1
 75 350 l 1,30,-1
 75 100 l 1,31,-1
 25 100 l 1,28,-1
125 450 m 1,32,-1
 375 450 l 1,33,-1
 375 400 l 1,34,-1
 125 400 l 1,35,-1
 125 450 l 1,32,-1
125 350 m 1,36,-1
 175 350 l 1,37,-1
 375 350 l 1,38,-1
 375 300 l 1,39,-1
 375 150 l 1,40,-1
 375 100 l 1,41,-1
 325 100 l 1,42,-1
 125 100 l 1,43,-1
 125 150 l 1,44,-1
 125 300 l 1,45,-1
 125 350 l 1,36,-1
175 300 m 1,46,-1
 175 150 l 1,47,-1
 325 150 l 1,48,-1
 325 300 l 1,49,-1
 175 300 l 1,46,-1
EndSplineSet
EndChar

StartChar: seven
Encoding: 55 55 23
Width: 500
Flags: W
LayerCount: 2
Fore
SplineSet
475 100 m 1,0,-1
 375 0 l 1,1,-1
 325 0 l 1,2,-1
 325 50 l 1,3,-1
 425 150 l 1,4,-1
 475 150 l 1,5,-1
 475 100 l 1,0,-1
25 350 m 1,6,-1
 125 450 l 1,7,-1
 175 450 l 1,8,-1
 175 400 l 1,9,-1
 75 300 l 1,10,-1
 25 300 l 1,11,-1
 25 350 l 1,6,-1
375 450 m 1,12,-1
 475 350 l 1,13,-1
 475 300 l 1,14,-1
 425 300 l 1,15,-1
 325 400 l 1,16,-1
 325 450 l 1,17,-1
 375 450 l 1,12,-1
475 350 m 1,18,-1
 475 100 l 1,19,-1
 425 100 l 1,20,-1
 425 350 l 1,21,-1
 475 350 l 1,18,-1
375 0 m 1,22,-1
 225 0 l 1,23,-1
 225 50 l 1,24,-1
 375 50 l 1,25,-1
 375 0 l 1,22,-1
25 200 m 1,26,-1
 25 350 l 1,27,-1
 75 350 l 1,28,-1
 75 200 l 1,29,-1
 25 200 l 1,26,-1
125 450 m 1,30,-1
 375 450 l 1,31,-1
 375 400 l 1,32,-1
 125 400 l 1,33,-1
 125 450 l 1,30,-1
125 350 m 1,34,-1
 175 350 l 1,35,-1
 375 350 l 1,36,-1
 375 300 l 1,37,-1
 375 150 l 1,38,-1
 375 100 l 1,39,-1
 325 100 l 1,40,-1
 125 100 l 1,41,-1
 125 150 l 1,42,-1
 125 300 l 1,43,-1
 125 350 l 1,34,-1
175 300 m 1,44,-1
 175 150 l 1,45,-1
 325 150 l 1,46,-1
 325 300 l 1,47,-1
 175 300 l 1,44,-1
EndSplineSet
EndChar

StartChar: eight
Encoding: 56 56 24
Width: 500
Flags: W
LayerCount: 2
Fore
SplineSet
475 100 m 1,0,-1
 375 0 l 1,1,-1
 325 0 l 1,2,-1
 325 50 l 1,3,-1
 425 150 l 1,4,-1
 475 150 l 1,5,-1
 475 100 l 1,0,-1
125 0 m 1,6,-1
 25 100 l 1,7,-1
 25 150 l 1,8,-1
 75 150 l 1,9,-1
 175 50 l 1,10,-1
 175 0 l 1,11,-1
 125 0 l 1,6,-1
25 350 m 1,12,-1
 125 450 l 1,13,-1
 175 450 l 1,14,-1
 175 400 l 1,15,-1
 75 300 l 1,16,-1
 25 300 l 1,17,-1
 25 350 l 1,12,-1
375 450 m 1,18,-1
 475 350 l 1,19,-1
 475 300 l 1,20,-1
 425 300 l 1,21,-1
 325 400 l 1,22,-1
 325 450 l 1,23,-1
 375 450 l 1,18,-1
475 350 m 1,24,-1
 475 100 l 1,25,-1
 425 100 l 1,26,-1
 425 350 l 1,27,-1
 475 350 l 1,24,-1
25 100 m 1,28,-1
 25 350 l 1,29,-1
 75 350 l 1,30,-1
 75 100 l 1,31,-1
 25 100 l 1,28,-1
125 450 m 1,32,-1
 375 450 l 1,33,-1
 375 400 l 1,34,-1
 125 400 l 1,35,-1
 125 450 l 1,32,-1
125 350 m 1,36,-1
 175 350 l 1,37,-1
 375 350 l 1,38,-1
 375 300 l 1,39,-1
 375 150 l 1,40,-1
 375 100 l 1,41,-1
 325 100 l 1,42,-1
 125 100 l 1,43,-1
 125 150 l 1,44,-1
 125 300 l 1,45,-1
 125 350 l 1,36,-1
175 300 m 1,46,-1
 175 150 l 1,47,-1
 325 150 l 1,48,-1
 325 300 l 1,49,-1
 175 300 l 1,46,-1
EndSplineSet
EndChar

StartChar: nine
Encoding: 57 57 25
Width: 500
Flags: W
LayerCount: 2
Fore
SplineSet
125 0 m 1,0,-1
 25 100 l 1,1,-1
 25 150 l 1,2,-1
 75 150 l 1,3,-1
 175 50 l 1,4,-1
 175 0 l 1,5,-1
 125 0 l 1,0,-1
25 350 m 1,6,-1
 125 450 l 1,7,-1
 175 450 l 1,8,-1
 175 400 l 1,9,-1
 75 300 l 1,10,-1
 25 300 l 1,11,-1
 25 350 l 1,6,-1
375 450 m 1,12,-1
 475 350 l 1,13,-1
 475 300 l 1,14,-1
 425 300 l 1,15,-1
 325 400 l 1,16,-1
 325 450 l 1,17,-1
 375 450 l 1,12,-1
475 350 m 1,18,-1
 475 200 l 1,19,-1
 425 200 l 1,20,-1
 425 350 l 1,21,-1
 475 350 l 1,18,-1
275 0 m 1,22,-1
 125 0 l 1,23,-1
 125 50 l 1,24,-1
 275 50 l 1,25,-1
 275 0 l 1,22,-1
25 100 m 1,26,-1
 25 350 l 1,27,-1
 75 350 l 1,28,-1
 75 100 l 1,29,-1
 25 100 l 1,26,-1
125 450 m 1,30,-1
 375 450 l 1,31,-1
 375 400 l 1,32,-1
 125 400 l 1,33,-1
 125 450 l 1,30,-1
125 350 m 1,34,-1
 175 350 l 1,35,-1
 375 350 l 1,36,-1
 375 300 l 1,37,-1
 375 150 l 1,38,-1
 375 100 l 1,39,-1
 325 100 l 1,40,-1
 125 100 l 1,41,-1
 125 150 l 1,42,-1
 125 300 l 1,43,-1
 125 350 l 1,34,-1
175 300 m 1,44,-1
 175 150 l 1,45,-1
 325 150 l 1,46,-1
 325 300 l 1,47,-1
 175 300 l 1,44,-1
EndSplineSet
EndChar

StartChar: colon
Encoding: 58 58 26
Width: 500
Flags: W
LayerCount: 2
Fore
SplineSet
225 450 m 1,0,-1
 275 450 l 1,1,-1
 275 400 l 1,2,-1
 225 400 l 1,3,-1
 225 450 l 1,0,-1
25 250 m 1,4,-1
 75 250 l 1,5,-1
 75 200 l 1,6,-1
 25 200 l 1,7,-1
 25 250 l 1,4,-1
225 250 m 1,8,-1
 275 250 l 1,9,-1
 275 200 l 1,10,-1
 225 200 l 1,11,-1
 225 250 l 1,8,-1
425 250 m 1,12,-1
 475 250 l 1,13,-1
 475 200 l 1,14,-1
 425 200 l 1,15,-1
 425 250 l 1,12,-1
225 50 m 1,16,-1
 275 50 l 1,17,-1
 275 0 l 1,18,-1
 225 0 l 1,19,-1
 225 50 l 1,16,-1
125 350 m 1,20,-1
 175 350 l 1,21,-1
 375 350 l 1,22,-1
 375 300 l 1,23,-1
 375 150 l 1,24,-1
 375 100 l 1,25,-1
 325 100 l 1,26,-1
 125 100 l 1,27,-1
 125 150 l 1,28,-1
 125 300 l 1,29,-1
 125 350 l 1,20,-1
175 300 m 1,30,-1
 175 150 l 1,31,-1
 325 150 l 1,32,-1
 325 300 l 1,33,-1
 175 300 l 1,30,-1
EndSplineSet
EndChar

StartChar: semicolon
Encoding: 59 59 27
Width: 500
Flags: W
LayerCount: 2
Fore
SplineSet
25 250 m 1,0,-1
 75 250 l 1,1,-1
 75 200 l 1,2,-1
 25 200 l 1,3,-1
 25 250 l 1,0,-1
225 250 m 1,4,-1
 275 250 l 1,5,-1
 275 200 l 1,6,-1
 225 200 l 1,7,-1
 225 250 l 1,4,-1
425 250 m 1,8,-1
 475 250 l 1,9,-1
 475 200 l 1,10,-1
 425 200 l 1,11,-1
 425 250 l 1,8,-1
125 350 m 1,12,-1
 175 350 l 1,13,-1
 375 350 l 1,14,-1
 375 300 l 1,15,-1
 375 150 l 1,16,-1
 375 100 l 1,17,-1
 325 100 l 1,18,-1
 125 100 l 1,19,-1
 125 150 l 1,20,-1
 125 300 l 1,21,-1
 125 350 l 1,12,-1
175 300 m 1,22,-1
 175 150 l 1,23,-1
 325 150 l 1,24,-1
 325 300 l 1,25,-1
 175 300 l 1,22,-1
EndSplineSet
EndChar

StartChar: less
Encoding: 60 60 28
Width: 500
Flags: W
LayerCount: 2
Fore
SplineSet
375 350 m 1,0,-1
 375 300 l 1,1,-1
 125 300 l 1,2,-1
 125 350 l 1,3,-1
 375 350 l 1,0,-1
125 350 m 1,4,-1
 175 350 l 1,5,-1
 175 100 l 1,6,-1
 125 100 l 1,7,-1
 125 350 l 1,4,-1
125 100 m 1,8,-1
 125 150 l 1,9,-1
 375 150 l 1,10,-1
 375 100 l 1,11,-1
 125 100 l 1,8,-1
EndSplineSet
EndChar

StartChar: equal
Encoding: 61 61 29
Width: 500
Flags: W
LayerCount: 2
Fore
SplineSet
375 350 m 1,0,-1
 375 300 l 1,1,-1
 125 300 l 1,2,-1
 125 350 l 1,3,-1
 375 350 l 1,0,-1
125 100 m 1,4,-1
 125 150 l 1,5,-1
 375 150 l 1,6,-1
 375 100 l 1,7,-1
 125 100 l 1,4,-1
EndSplineSet
EndChar

StartChar: greater
Encoding: 62 62 30
Width: 500
Flags: W
LayerCount: 2
Fore
SplineSet
125 350 m 1,0,-1
 325 350 l 1,1,-1
 375 350 l 1,2,-1
 375 300 l 1,3,-1
 375 150 l 1,4,-1
 375 100 l 1,5,-1
 125 100 l 1,6,-1
 125 150 l 1,7,-1
 325 150 l 1,8,-1
 325 300 l 1,9,-1
 125 300 l 1,10,-1
 125 350 l 1,0,-1
EndSplineSet
EndChar

StartChar: question
Encoding: 63 63 31
Width: 500
Flags: W
LayerCount: 2
Fore
SplineSet
225 450 m 1,0,-1
 275 450 l 1,1,-1
 275 400 l 1,2,-1
 225 400 l 1,3,-1
 225 450 l 1,0,-1
225 250 m 1,4,-1
 275 250 l 1,5,-1
 275 200 l 1,6,-1
 225 200 l 1,7,-1
 225 250 l 1,4,-1
225 50 m 1,8,-1
 275 50 l 1,9,-1
 275 0 l 1,10,-1
 225 0 l 1,11,-1
 225 50 l 1,8,-1
EndSplineSet
EndChar

StartChar: at
Encoding: 64 64 32
Width: 500
Flags: W
LayerCount: 2
Fore
SplineSet
375 350 m 1,0,-1
 375 300 l 1,1,-1
 125 300 l 1,2,-1
 125 350 l 1,3,-1
 375 350 l 1,0,-1
375 100 m 1,4,-1
 325 100 l 1,5,-1
 325 350 l 1,6,-1
 375 350 l 1,7,-1
 375 100 l 1,4,-1
125 100 m 1,8,-1
 125 150 l 1,9,-1
 375 150 l 1,10,-1
 375 100 l 1,11,-1
 125 100 l 1,8,-1
125 350 m 1,12,-1
 175 350 l 1,13,-1
 175 100 l 1,14,-1
 125 100 l 1,15,-1
 125 350 l 1,12,-1
475 100 m 1,16,-1
 375 0 l 1,17,-1
 325 0 l 1,18,-1
 325 50 l 1,19,-1
 425 150 l 1,20,-1
 475 150 l 1,21,-1
 475 100 l 1,16,-1
125 0 m 1,22,-1
 25 100 l 1,23,-1
 25 150 l 1,24,-1
 75 150 l 1,25,-1
 175 50 l 1,26,-1
 175 0 l 1,27,-1
 125 0 l 1,22,-1
25 350 m 1,28,-1
 125 450 l 1,29,-1
 175 450 l 1,30,-1
 175 400 l 1,31,-1
 75 300 l 1,32,-1
 25 300 l 1,33,-1
 25 350 l 1,28,-1
375 450 m 1,34,-1
 475 350 l 1,35,-1
 475 300 l 1,36,-1
 425 300 l 1,37,-1
 325 400 l 1,38,-1
 325 450 l 1,39,-1
 375 450 l 1,34,-1
475 350 m 1,40,-1
 475 100 l 1,41,-1
 425 100 l 1,42,-1
 425 350 l 1,43,-1
 475 350 l 1,40,-1
375 0 m 1,44,-1
 125 0 l 1,45,-1
 125 50 l 1,46,-1
 375 50 l 1,47,-1
 375 0 l 1,44,-1
25 100 m 1,48,-1
 25 350 l 1,49,-1
 75 350 l 1,50,-1
 75 100 l 1,51,-1
 25 100 l 1,48,-1
125 450 m 1,52,-1
 375 450 l 1,53,-1
 375 400 l 1,54,-1
 125 400 l 1,55,-1
 125 450 l 1,52,-1
175 350 m 1,56,-1
 175 300 l 1,57,-1
 125 300 l 1,58,-1
 25 400 l 1,59,-1
 25 450 l 1,60,-1
 75 450 l 1,61,-1
 175 350 l 1,56,-1
275 250 m 1,62,-1
 275 200 l 1,63,-1
 225 200 l 1,64,-1
 125 300 l 1,65,-1
 125 350 l 1,66,-1
 175 350 l 1,67,-1
 275 250 l 1,62,-1
325 100 m 1,68,-1
 325 150 l 1,69,-1
 375 150 l 1,70,-1
 475 50 l 1,71,-1
 475 0 l 1,72,-1
 425 0 l 1,73,-1
 325 100 l 1,68,-1
225 200 m 1,74,-1
 225 250 l 1,75,-1
 275 250 l 1,76,-1
 375 150 l 1,77,-1
 375 100 l 1,78,-1
 325 100 l 1,79,-1
 225 200 l 1,74,-1
EndSplineSet
EndChar

StartChar: A
Encoding: 65 65 33
Width: 0
Flags: W
AnchorPoint: "vowel" -250 225 mark 0
LayerCount: 2
Fore
SplineSet
-475 650 m 1,0,-1
 -425 650 l 1,1,-1
 -400 625 l 1,2,-1
 -375 650 l 1,3,-1
 -325 650 l 1,4,-1
 -175 650 l 1,5,-1
 -125 650 l 1,6,-1
 -25 550 l 1,7,-1
 -25 500 l 1,8,-1
 -75 500 l 1,9,-1
 -175 600 l 1,10,-1
 -325 600 l 1,11,-1
 -350 575 l 1,12,-1
 -325 550 l 1,13,-1
 -225 450 l 1,14,-1
 -225 400 l 1,15,-1
 -275 400 l 1,16,-1
 -375 500 l 1,17,-1
 -400 525 l 1,18,-1
 -425 500 l 1,19,-1
 -475 500 l 1,20,-1
 -475 550 l 1,21,-1
 -450 575 l 1,22,-1
 -475 600 l 1,23,-1
 -475 650 l 1,0,-1
EndSplineSet
EndChar

StartChar: B
Encoding: 66 66 34
Width: 500
Flags: W
AnchorPoint: "vowel" 250 225 basechar 0
LayerCount: 2
Fore
SplineSet
125 450 m 1,0,-1
 325 450 l 1,1,-1
 375 450 l 1,2,-1
 475 350 l 1,3,-1
 475 300 l 1,4,-1
 425 300 l 1,5,-1
 325 400 l 1,6,-1
 175 400 l 1,7,-1
 75 300 l 1,8,-1
 75 150 l 1,9,-1
 175 50 l 1,10,-1
 325 50 l 1,11,-1
 425 150 l 1,12,-1
 475 150 l 1,13,-1
 475 100 l 1,14,-1
 375 0 l 1,15,-1
 125 0 l 1,16,-1
 25 100 l 1,17,-1
 25 300 l 1,18,-1
 25 350 l 1,19,-1
 125 450 l 1,0,-1
25 450 m 1,20,-1
 75 450 l 1,21,-1
 175 350 l 1,22,-1
 275 250 l 1,23,-1
 375 150 l 1,24,-1
 475 50 l 1,25,-1
 475 0 l 1,26,-1
 425 0 l 1,27,-1
 325 100 l 1,28,-1
 225 200 l 1,29,-1
 125 300 l 1,30,-1
 25 400 l 1,31,-1
 25 450 l 1,20,-1
EndSplineSet
EndChar

StartChar: C
Encoding: 67 67 35
Width: 500
Flags: W
AnchorPoint: "vowel" 250 225 basechar 0
LayerCount: 2
Fore
SplineSet
125 450 m 1,0,-1
 175 450 l 1,1,-1
 325 450 l 1,2,-1
 375 450 l 1,3,-1
 475 350 l 1,4,-1
 475 300 l 1,5,-1
 475 150 l 1,6,-1
 475 100 l 1,7,-1
 375 0 l 1,8,-1
 325 0 l 1,9,-1
 175 0 l 1,10,-1
 125 0 l 1,11,-1
 25 100 l 1,12,-1
 25 150 l 1,13,-1
 75 150 l 1,14,-1
 175 50 l 1,15,-1
 325 50 l 1,16,-1
 425 150 l 1,17,-1
 425 300 l 1,18,-1
 325 400 l 1,19,-1
 175 400 l 1,20,-1
 75 300 l 1,21,-1
 25 300 l 1,22,-1
 25 350 l 1,23,-1
 125 450 l 1,0,-1
25 450 m 1,24,-1
 75 450 l 1,25,-1
 175 350 l 1,26,-1
 275 250 l 1,27,-1
 375 150 l 1,28,-1
 475 50 l 1,29,-1
 475 0 l 1,30,-1
 425 0 l 1,31,-1
 325 100 l 1,32,-1
 225 200 l 1,33,-1
 125 300 l 1,34,-1
 25 400 l 1,35,-1
 25 450 l 1,24,-1
EndSplineSet
EndChar

StartChar: D
Encoding: 68 68 36
Width: 500
Flags: W
AnchorPoint: "vowel" 250 225 basechar 0
LayerCount: 2
Fore
SplineSet
125 450 m 1,0,-1
 175 450 l 1,1,-1
 175 400 l 1,2,-1
 75 300 l 1,3,-1
 75 150 l 1,4,-1
 175 50 l 1,5,-1
 325 50 l 1,6,-1
 425 150 l 1,7,-1
 425 300 l 1,8,-1
 325 400 l 1,9,-1
 325 450 l 1,10,-1
 375 450 l 1,11,-1
 475 350 l 1,12,-1
 475 300 l 1,13,-1
 475 150 l 1,14,-1
 475 100 l 1,15,-1
 375 0 l 1,16,-1
 325 0 l 1,17,-1
 175 0 l 1,18,-1
 125 0 l 1,19,-1
 25 100 l 1,20,-1
 25 150 l 1,21,-1
 25 300 l 1,22,-1
 25 350 l 1,23,-1
 125 450 l 1,0,-1
25 450 m 1,24,-1
 75 450 l 1,25,-1
 175 350 l 1,26,-1
 275 250 l 1,27,-1
 375 150 l 1,28,-1
 475 50 l 1,29,-1
 475 0 l 1,30,-1
 425 0 l 1,31,-1
 325 100 l 1,32,-1
 225 200 l 1,33,-1
 125 300 l 1,34,-1
 25 400 l 1,35,-1
 25 450 l 1,24,-1
EndSplineSet
EndChar

StartChar: E
Encoding: 69 69 37
Width: 0
Flags: W
AnchorPoint: "vowel" -250 225 mark 0
LayerCount: 2
Fore
SplineSet
-475 650 m 1,0,-1
 -425 650 l 1,1,-1
 -325 550 l 1,2,-1
 -225 450 l 1,3,-1
 -225 400 l 1,4,-1
 -275 400 l 1,5,-1
 -375 500 l 1,6,-1
 -475 600 l 1,7,-1
 -475 650 l 1,0,-1
EndSplineSet
EndChar

StartChar: F
Encoding: 70 70 38
Width: 500
Flags: W
AnchorPoint: "vowel" 250 225 basechar 0
LayerCount: 2
Fore
SplineSet
125 450 m 1,0,-1
 325 450 l 1,1,-1
 375 450 l 1,2,-1
 475 350 l 1,3,-1
 475 300 l 1,4,-1
 475 150 l 1,5,-1
 475 100 l 1,6,-1
 375 0 l 1,7,-1
 325 0 l 1,8,-1
 325 50 l 1,9,-1
 425 150 l 1,10,-1
 425 300 l 1,11,-1
 325 400 l 1,12,-1
 175 400 l 1,13,-1
 75 300 l 1,14,-1
 75 150 l 1,15,-1
 175 50 l 1,16,-1
 175 0 l 1,17,-1
 125 0 l 1,18,-1
 25 100 l 1,19,-1
 25 300 l 1,20,-1
 25 350 l 1,21,-1
 125 450 l 1,0,-1
EndSplineSet
EndChar

StartChar: G
Encoding: 71 71 39
Width: 500
Flags: W
AnchorPoint: "vowel" 250 225 basechar 0
LayerCount: 2
Fore
SplineSet
225 450 m 1,0,-1
 325 450 l 1,1,-1
 375 450 l 1,2,-1
 475 350 l 1,3,-1
 475 300 l 1,4,-1
 475 150 l 1,5,-1
 475 100 l 1,6,-1
 375 0 l 1,7,-1
 125 0 l 1,8,-1
 25 100 l 1,9,-1
 25 250 l 1,10,-1
 75 250 l 1,11,-1
 75 150 l 1,12,-1
 175 50 l 1,13,-1
 325 50 l 1,14,-1
 425 150 l 1,15,-1
 425 300 l 1,16,-1
 325 400 l 1,17,-1
 225 400 l 1,18,-1
 225 450 l 1,0,-1
25 450 m 1,19,-1
 75 450 l 1,20,-1
 175 350 l 1,21,-1
 275 250 l 1,22,-1
 375 150 l 1,23,-1
 475 50 l 1,24,-1
 475 0 l 1,25,-1
 425 0 l 1,26,-1
 325 100 l 1,27,-1
 225 200 l 1,28,-1
 125 300 l 1,29,-1
 25 400 l 1,30,-1
 25 450 l 1,19,-1
EndSplineSet
EndChar

StartChar: H
Encoding: 72 72 40
Width: 500
Flags: W
AnchorPoint: "vowel" 250 225 basechar 0
LayerCount: 2
Fore
SplineSet
125 450 m 1,0,-1
 325 450 l 1,1,-1
 375 450 l 1,2,-1
 475 350 l 1,3,-1
 475 300 l 1,4,-1
 475 150 l 1,5,-1
 475 100 l 1,6,-1
 375 0 l 1,7,-1
 225 0 l 1,8,-1
 225 50 l 1,9,-1
 325 50 l 1,10,-1
 425 150 l 1,11,-1
 425 300 l 1,12,-1
 325 400 l 1,13,-1
 175 400 l 1,14,-1
 75 300 l 1,15,-1
 75 200 l 1,16,-1
 25 200 l 1,17,-1
 25 300 l 1,18,-1
 25 350 l 1,19,-1
 125 450 l 1,0,-1
EndSplineSet
EndChar

StartChar: I
Encoding: 73 73 41
Width: 0
Flags: W
AnchorPoint: "vowel" -250 225 mark 0
LayerCount: 2
Fore
SplineSet
-375 650 m 1,0,-1
 -325 650 l 1,1,-1
 -175 650 l 1,2,-1
 -125 650 l 1,3,-1
 -25 550 l 1,4,-1
 -25 500 l 1,5,-1
 -75 500 l 1,6,-1
 -175 600 l 1,7,-1
 -325 600 l 1,8,-1
 -425 500 l 1,9,-1
 -475 500 l 1,10,-1
 -475 550 l 1,11,-1
 -375 650 l 1,0,-1
EndSplineSet
EndChar

StartChar: J
Encoding: 74 74 42
Width: 500
Flags: W
AnchorPoint: "vowel" 250 225 basechar 0
LayerCount: 2
Fore
SplineSet
125 450 m 1,0,-1
 175 450 l 1,1,-1
 275 450 l 1,2,-1
 275 400 l 1,3,-1
 175 400 l 1,4,-1
 75 300 l 1,5,-1
 75 150 l 1,6,-1
 175 50 l 1,7,-1
 325 50 l 1,8,-1
 425 150 l 1,9,-1
 425 250 l 1,10,-1
 475 250 l 1,11,-1
 475 150 l 1,12,-1
 475 100 l 1,13,-1
 375 0 l 1,14,-1
 325 0 l 1,15,-1
 175 0 l 1,16,-1
 125 0 l 1,17,-1
 25 100 l 1,18,-1
 25 150 l 1,19,-1
 25 300 l 1,20,-1
 25 350 l 1,21,-1
 125 450 l 1,0,-1
25 450 m 1,22,-1
 75 450 l 1,23,-1
 175 350 l 1,24,-1
 275 250 l 1,25,-1
 375 150 l 1,26,-1
 475 50 l 1,27,-1
 475 0 l 1,28,-1
 425 0 l 1,29,-1
 325 100 l 1,30,-1
 225 200 l 1,31,-1
 125 300 l 1,32,-1
 25 400 l 1,33,-1
 25 450 l 1,22,-1
125 350 m 1,34,-1
 175 350 l 1,35,-1
 375 350 l 1,36,-1
 375 300 l 1,37,-1
 375 150 l 1,38,-1
 375 100 l 1,39,-1
 325 100 l 1,40,-1
 125 100 l 1,41,-1
 125 150 l 1,42,-1
 125 300 l 1,43,-1
 125 350 l 1,34,-1
175 300 m 1,44,-1
 175 150 l 1,45,-1
 325 150 l 1,46,-1
 325 300 l 1,47,-1
 175 300 l 1,44,-1
EndSplineSet
EndChar

StartChar: K
Encoding: 75 75 43
Width: 500
Flags: W
AnchorPoint: "vowel" 250 225 basechar 0
LayerCount: 2
Fore
SplineSet
225 450 m 1,0,-1
 325 450 l 1,1,-1
 375 450 l 1,2,-1
 475 350 l 1,3,-1
 475 300 l 1,4,-1
 475 150 l 1,5,-1
 475 100 l 1,6,-1
 375 0 l 1,7,-1
 125 0 l 1,8,-1
 25 100 l 1,9,-1
 25 250 l 1,10,-1
 75 250 l 1,11,-1
 75 150 l 1,12,-1
 175 50 l 1,13,-1
 325 50 l 1,14,-1
 425 150 l 1,15,-1
 425 300 l 1,16,-1
 325 400 l 1,17,-1
 225 400 l 1,18,-1
 225 450 l 1,0,-1
EndSplineSet
EndChar

StartChar: L
Encoding: 76 76 44
Width: 500
Flags: W
AnchorPoint: "vowel" 250 225 basechar 0
LayerCount: 2
Fore
SplineSet
125 450 m 1,0,-1
 325 450 l 1,1,-1
 375 450 l 1,2,-1
 475 350 l 1,3,-1
 475 300 l 1,4,-1
 475 150 l 1,5,-1
 475 100 l 1,6,-1
 375 0 l 1,7,-1
 125 0 l 1,8,-1
 25 100 l 1,9,-1
 25 300 l 1,10,-1
 25 350 l 1,11,-1
 125 450 l 1,0,-1
175 400 m 1,12,-1
 75 300 l 1,13,-1
 75 150 l 1,14,-1
 175 50 l 1,15,-1
 325 50 l 1,16,-1
 425 150 l 1,17,-1
 425 300 l 1,18,-1
 325 400 l 1,19,-1
 175 400 l 1,12,-1
25 450 m 1,20,-1
 75 450 l 1,21,-1
 175 350 l 1,22,-1
 275 250 l 1,23,-1
 375 150 l 1,24,-1
 475 50 l 1,25,-1
 475 0 l 1,26,-1
 425 0 l 1,27,-1
 325 100 l 1,28,-1
 225 200 l 1,29,-1
 125 300 l 1,30,-1
 25 400 l 1,31,-1
 25 450 l 1,20,-1
EndSplineSet
EndChar

StartChar: M
Encoding: 77 77 45
Width: 500
Flags: W
AnchorPoint: "vowel" 250 225 basechar 0
LayerCount: 2
Fore
SplineSet
125 450 m 1,0,-1
 175 450 l 1,1,-1
 325 450 l 1,2,-1
 375 450 l 1,3,-1
 475 350 l 1,4,-1
 475 300 l 1,5,-1
 475 200 l 1,6,-1
 425 200 l 1,7,-1
 425 300 l 1,8,-1
 325 400 l 1,9,-1
 175 400 l 1,10,-1
 75 300 l 1,11,-1
 75 150 l 1,12,-1
 175 50 l 1,13,-1
 275 50 l 1,14,-1
 275 0 l 1,15,-1
 175 0 l 1,16,-1
 125 0 l 1,17,-1
 25 100 l 1,18,-1
 25 150 l 1,19,-1
 25 300 l 1,20,-1
 25 350 l 1,21,-1
 125 450 l 1,0,-1
EndSplineSet
EndChar

StartChar: N
Encoding: 78 78 46
Width: 500
Flags: W
AnchorPoint: "vowel" 250 225 basechar 0
LayerCount: 2
Fore
SplineSet
125 450 m 1,0,-1
 175 450 l 1,1,-1
 325 450 l 1,2,-1
 375 450 l 1,3,-1
 475 350 l 1,4,-1
 475 300 l 1,5,-1
 475 200 l 1,6,-1
 425 200 l 1,7,-1
 425 300 l 1,8,-1
 325 400 l 1,9,-1
 175 400 l 1,10,-1
 75 300 l 1,11,-1
 75 150 l 1,12,-1
 175 50 l 1,13,-1
 275 50 l 1,14,-1
 275 0 l 1,15,-1
 175 0 l 1,16,-1
 125 0 l 1,17,-1
 25 100 l 1,18,-1
 25 150 l 1,19,-1
 25 300 l 1,20,-1
 25 350 l 1,21,-1
 125 450 l 1,0,-1
25 450 m 1,22,-1
 75 450 l 1,23,-1
 175 350 l 1,24,-1
 275 250 l 1,25,-1
 375 150 l 1,26,-1
 475 50 l 1,27,-1
 475 0 l 1,28,-1
 425 0 l 1,29,-1
 325 100 l 1,30,-1
 225 200 l 1,31,-1
 125 300 l 1,32,-1
 25 400 l 1,33,-1
 25 450 l 1,22,-1
EndSplineSet
EndChar

StartChar: O
Encoding: 79 79 47
Width: 0
Flags: W
AnchorPoint: "vowel" -250 225 mark 0
LayerCount: 2
Fore
SplineSet
-275 50 m 1,0,-1
 -225 50 l 1,1,-1
 -125 -50 l 1,2,-1
 -100 -75 l 1,3,-1
 -75 -50 l 1,4,-1
 -25 -50 l 1,5,-1
 -25 -100 l 1,6,-1
 -50 -125 l 1,7,-1
 -25 -150 l 1,8,-1
 -25 -200 l 1,9,-1
 -75 -200 l 1,10,-1
 -100 -175 l 1,11,-1
 -125 -200 l 1,12,-1
 -175 -200 l 1,13,-1
 -325 -200 l 1,14,-1
 -375 -200 l 1,15,-1
 -475 -100 l 1,16,-1
 -475 -50 l 1,17,-1
 -425 -50 l 1,18,-1
 -325 -150 l 1,19,-1
 -175 -150 l 1,20,-1
 -150 -125 l 1,21,-1
 -175 -100 l 1,22,-1
 -275 0 l 1,23,-1
 -275 50 l 1,0,-1
EndSplineSet
EndChar

StartChar: P
Encoding: 80 80 48
Width: 500
Flags: W
AnchorPoint: "vowel" 250 225 basechar 0
LayerCount: 2
Fore
SplineSet
125 450 m 1,0,-1
 325 450 l 1,1,-1
 375 450 l 1,2,-1
 475 350 l 1,3,-1
 475 300 l 1,4,-1
 425 300 l 1,5,-1
 325 400 l 1,6,-1
 175 400 l 1,7,-1
 75 300 l 1,8,-1
 75 150 l 1,9,-1
 175 50 l 1,10,-1
 325 50 l 1,11,-1
 425 150 l 1,12,-1
 475 150 l 1,13,-1
 475 100 l 1,14,-1
 375 0 l 1,15,-1
 125 0 l 1,16,-1
 25 100 l 1,17,-1
 25 300 l 1,18,-1
 25 350 l 1,19,-1
 125 450 l 1,0,-1
EndSplineSet
EndChar

StartChar: Q
Encoding: 81 81 49
Width: 500
Flags: W
AnchorPoint: "vowel" 250 225 basechar 0
LayerCount: 2
Fore
SplineSet
125 450 m 1,0,-1
 175 450 l 1,1,-1
 325 450 l 1,2,-1
 375 450 l 1,3,-1
 475 350 l 1,4,-1
 475 300 l 1,5,-1
 475 150 l 1,6,-1
 475 100 l 1,7,-1
 375 0 l 1,8,-1
 325 0 l 1,9,-1
 175 0 l 1,10,-1
 125 0 l 1,11,-1
 25 100 l 1,12,-1
 25 150 l 1,13,-1
 75 150 l 1,14,-1
 175 50 l 1,15,-1
 325 50 l 1,16,-1
 425 150 l 1,17,-1
 425 300 l 1,18,-1
 325 400 l 1,19,-1
 175 400 l 1,20,-1
 75 300 l 1,21,-1
 25 300 l 1,22,-1
 25 350 l 1,23,-1
 125 450 l 1,0,-1
EndSplineSet
EndChar

StartChar: R
Encoding: 82 82 50
Width: 500
Flags: W
AnchorPoint: "vowel" 250 225 basechar 0
LayerCount: 2
Fore
SplineSet
125 450 m 1,0,-1
 325 450 l 1,1,-1
 375 450 l 1,2,-1
 475 350 l 1,3,-1
 475 300 l 1,4,-1
 475 150 l 1,5,-1
 475 100 l 1,6,-1
 375 0 l 1,7,-1
 125 0 l 1,8,-1
 25 100 l 1,9,-1
 25 300 l 1,10,-1
 25 350 l 1,11,-1
 125 450 l 1,0,-1
175 400 m 1,12,-1
 75 300 l 1,13,-1
 75 150 l 1,14,-1
 175 50 l 1,15,-1
 325 50 l 1,16,-1
 425 150 l 1,17,-1
 425 300 l 1,18,-1
 325 400 l 1,19,-1
 175 400 l 1,12,-1
EndSplineSet
EndChar

StartChar: S
Encoding: 83 83 51
Width: 500
Flags: W
AnchorPoint: "vowel" 250 225 basechar 0
LayerCount: 2
Fore
SplineSet
125 450 m 1,0,-1
 175 450 l 1,1,-1
 275 450 l 1,2,-1
 275 400 l 1,3,-1
 175 400 l 1,4,-1
 75 300 l 1,5,-1
 75 150 l 1,6,-1
 175 50 l 1,7,-1
 325 50 l 1,8,-1
 425 150 l 1,9,-1
 425 250 l 1,10,-1
 475 250 l 1,11,-1
 475 150 l 1,12,-1
 475 100 l 1,13,-1
 375 0 l 1,14,-1
 325 0 l 1,15,-1
 175 0 l 1,16,-1
 125 0 l 1,17,-1
 25 100 l 1,18,-1
 25 150 l 1,19,-1
 25 300 l 1,20,-1
 25 350 l 1,21,-1
 125 450 l 1,0,-1
EndSplineSet
EndChar

StartChar: T
Encoding: 84 84 52
Width: 500
Flags: W
AnchorPoint: "vowel" 250 225 basechar 0
LayerCount: 2
Fore
SplineSet
125 450 m 1,0,-1
 175 450 l 1,1,-1
 175 400 l 1,2,-1
 75 300 l 1,3,-1
 75 150 l 1,4,-1
 175 50 l 1,5,-1
 325 50 l 1,6,-1
 425 150 l 1,7,-1
 425 300 l 1,8,-1
 325 400 l 1,9,-1
 325 450 l 1,10,-1
 375 450 l 1,11,-1
 475 350 l 1,12,-1
 475 300 l 1,13,-1
 475 150 l 1,14,-1
 475 100 l 1,15,-1
 375 0 l 1,16,-1
 325 0 l 1,17,-1
 175 0 l 1,18,-1
 125 0 l 1,19,-1
 25 100 l 1,20,-1
 25 150 l 1,21,-1
 25 300 l 1,22,-1
 25 350 l 1,23,-1
 125 450 l 1,0,-1
EndSplineSet
EndChar

StartChar: U
Encoding: 85 85 53
Width: 0
Flags: W
AnchorPoint: "vowel" -250 225 mark 0
LayerCount: 2
Fore
SplineSet
-275 50 m 1,0,-1
 -225 50 l 1,1,-1
 -125 -50 l 1,2,-1
 -25 -150 l 1,3,-1
 -25 -200 l 1,4,-1
 -75 -200 l 1,5,-1
 -175 -100 l 1,6,-1
 -275 0 l 1,7,-1
 -275 50 l 1,0,-1
EndSplineSet
EndChar

StartChar: V
Encoding: 86 86 54
Width: 500
Flags: W
AnchorPoint: "vowel" 250 225 basechar 0
LayerCount: 2
Fore
SplineSet
125 450 m 1,0,-1
 325 450 l 1,1,-1
 375 450 l 1,2,-1
 475 350 l 1,3,-1
 475 300 l 1,4,-1
 475 150 l 1,5,-1
 475 100 l 1,6,-1
 375 0 l 1,7,-1
 325 0 l 1,8,-1
 325 50 l 1,9,-1
 425 150 l 1,10,-1
 425 300 l 1,11,-1
 325 400 l 1,12,-1
 175 400 l 1,13,-1
 75 300 l 1,14,-1
 75 150 l 1,15,-1
 175 50 l 1,16,-1
 175 0 l 1,17,-1
 125 0 l 1,18,-1
 25 100 l 1,19,-1
 25 300 l 1,20,-1
 25 350 l 1,21,-1
 125 450 l 1,0,-1
25 450 m 1,22,-1
 75 450 l 1,23,-1
 175 350 l 1,24,-1
 275 250 l 1,25,-1
 375 150 l 1,26,-1
 475 50 l 1,27,-1
 475 0 l 1,28,-1
 425 0 l 1,29,-1
 325 100 l 1,30,-1
 225 200 l 1,31,-1
 125 300 l 1,32,-1
 25 400 l 1,33,-1
 25 450 l 1,22,-1
EndSplineSet
EndChar

StartChar: W
Encoding: 87 87 55
Width: 0
Flags: W
AnchorPoint: "vowel" -250 225 mark 0
LayerCount: 2
Fore
SplineSet
-475 -50 m 1,0,-1
 -425 -50 l 1,1,-1
 -325 -150 l 1,2,-1
 -175 -150 l 1,3,-1
 -75 -50 l 1,4,-1
 -25 -50 l 1,5,-1
 -25 -100 l 1,6,-1
 -125 -200 l 1,7,-1
 -175 -200 l 1,8,-1
 -325 -200 l 1,9,-1
 -375 -200 l 1,10,-1
 -475 -100 l 1,11,-1
 -475 -50 l 1,0,-1
EndSplineSet
EndChar

StartChar: X
Encoding: 88 88 56
Width: 500
Flags: W
AnchorPoint: "vowel" 250 225 basechar 0
LayerCount: 2
Fore
SplineSet
125 450 m 1,0,-1
 325 450 l 1,1,-1
 375 450 l 1,2,-1
 475 350 l 1,3,-1
 475 300 l 1,4,-1
 475 150 l 1,5,-1
 475 100 l 1,6,-1
 375 0 l 1,7,-1
 225 0 l 1,8,-1
 225 50 l 1,9,-1
 325 50 l 1,10,-1
 425 150 l 1,11,-1
 425 300 l 1,12,-1
 325 400 l 1,13,-1
 175 400 l 1,14,-1
 75 300 l 1,15,-1
 75 200 l 1,16,-1
 25 200 l 1,17,-1
 25 300 l 1,18,-1
 25 350 l 1,19,-1
 125 450 l 1,0,-1
25 450 m 1,20,-1
 75 450 l 1,21,-1
 175 350 l 1,22,-1
 275 250 l 1,23,-1
 375 150 l 1,24,-1
 475 50 l 1,25,-1
 475 0 l 1,26,-1
 425 0 l 1,27,-1
 325 100 l 1,28,-1
 225 200 l 1,29,-1
 125 300 l 1,30,-1
 25 400 l 1,31,-1
 25 450 l 1,20,-1
EndSplineSet
EndChar

StartChar: Y
Encoding: 89 89 57
Width: 500
Flags: W
AnchorPoint: "vowel" 250 225 basechar 0
LayerCount: 2
Fore
SplineSet
125 450 m 1,0,-1
 175 450 l 1,1,-1
 325 450 l 1,2,-1
 375 450 l 1,3,-1
 475 350 l 1,4,-1
 475 300 l 1,5,-1
 475 150 l 1,6,-1
 475 100 l 1,7,-1
 375 0 l 1,8,-1
 325 0 l 1,9,-1
 175 0 l 1,10,-1
 125 0 l 1,11,-1
 25 100 l 1,12,-1
 25 150 l 1,13,-1
 75 150 l 1,14,-1
 175 50 l 1,15,-1
 325 50 l 1,16,-1
 425 150 l 1,17,-1
 425 300 l 1,18,-1
 325 400 l 1,19,-1
 175 400 l 1,20,-1
 75 300 l 1,21,-1
 25 300 l 1,22,-1
 25 350 l 1,23,-1
 125 450 l 1,0,-1
25 450 m 1,24,-1
 75 450 l 1,25,-1
 175 350 l 1,26,-1
 275 250 l 1,27,-1
 375 150 l 1,28,-1
 475 50 l 1,29,-1
 475 0 l 1,30,-1
 425 0 l 1,31,-1
 325 100 l 1,32,-1
 225 200 l 1,33,-1
 125 300 l 1,34,-1
 25 400 l 1,35,-1
 25 450 l 1,24,-1
125 350 m 1,36,-1
 175 350 l 1,37,-1
 375 350 l 1,38,-1
 375 300 l 1,39,-1
 375 150 l 1,40,-1
 375 100 l 1,41,-1
 325 100 l 1,42,-1
 125 100 l 1,43,-1
 125 150 l 1,44,-1
 125 300 l 1,45,-1
 125 350 l 1,36,-1
175 300 m 1,46,-1
 175 150 l 1,47,-1
 325 150 l 1,48,-1
 325 300 l 1,49,-1
 175 300 l 1,46,-1
EndSplineSet
EndChar

StartChar: Z
Encoding: 90 90 58
Width: 500
Flags: W
AnchorPoint: "vowel" 250 225 basechar 0
LayerCount: 2
Fore
SplineSet
125 450 m 1,0,-1
 175 450 l 1,1,-1
 275 450 l 1,2,-1
 275 400 l 1,3,-1
 175 400 l 1,4,-1
 75 300 l 1,5,-1
 75 150 l 1,6,-1
 175 50 l 1,7,-1
 325 50 l 1,8,-1
 425 150 l 1,9,-1
 425 250 l 1,10,-1
 475 250 l 1,11,-1
 475 150 l 1,12,-1
 475 100 l 1,13,-1
 375 0 l 1,14,-1
 325 0 l 1,15,-1
 175 0 l 1,16,-1
 125 0 l 1,17,-1
 25 100 l 1,18,-1
 25 150 l 1,19,-1
 25 300 l 1,20,-1
 25 350 l 1,21,-1
 125 450 l 1,0,-1
25 450 m 1,22,-1
 75 450 l 1,23,-1
 175 350 l 1,24,-1
 275 250 l 1,25,-1
 375 150 l 1,26,-1
 475 50 l 1,27,-1
 475 0 l 1,28,-1
 425 0 l 1,29,-1
 325 100 l 1,30,-1
 225 200 l 1,31,-1
 125 300 l 1,32,-1
 25 400 l 1,33,-1
 25 450 l 1,22,-1
EndSplineSet
EndChar

StartChar: bracketleft
Encoding: 91 91 59
Width: 500
Flags: W
LayerCount: 2
Fore
SplineSet
375 550 m 1,0,-1
 375 500 l 1,1,-1
 125 500 l 1,2,-1
 125 550 l 1,3,-1
 375 550 l 1,0,-1
125 -100 m 1,4,-1
 125 -50 l 1,5,-1
 375 -50 l 1,6,-1
 375 -100 l 1,7,-1
 125 -100 l 1,4,-1
125 550 m 1,8,-1
 175 550 l 1,9,-1
 175 -100 l 1,10,-1
 125 -100 l 1,11,-1
 125 550 l 1,8,-1
EndSplineSet
EndChar

StartChar: backslash
Encoding: 92 92 60
Width: 500
Flags: W
LayerCount: 2
Fore
SplineSet
25 450 m 1,0,-1
 75 450 l 1,1,-1
 175 350 l 1,2,-1
 275 250 l 1,3,-1
 375 150 l 1,4,-1
 475 50 l 1,5,-1
 475 0 l 1,6,-1
 425 0 l 1,7,-1
 325 100 l 1,8,-1
 225 200 l 1,9,-1
 125 300 l 1,10,-1
 25 400 l 1,11,-1
 25 450 l 1,0,-1
EndSplineSet
EndChar

StartChar: bracketright
Encoding: 93 93 61
Width: 500
Flags: W
LayerCount: 2
Fore
SplineSet
375 550 m 1,0,-1
 375 500 l 1,1,-1
 125 500 l 1,2,-1
 125 550 l 1,3,-1
 375 550 l 1,0,-1
125 -100 m 1,4,-1
 125 -50 l 1,5,-1
 375 -50 l 1,6,-1
 375 -100 l 1,7,-1
 125 -100 l 1,4,-1
325 550 m 1,8,-1
 375 550 l 1,9,-1
 375 -100 l 1,10,-1
 325 -100 l 1,11,-1
 325 550 l 1,8,-1
EndSplineSet
EndChar

StartChar: asciicircum
Encoding: 94 94 62
Width: 500
Flags: W
LayerCount: 2
Fore
SplineSet
225 450 m 1,0,-1
 275 450 l 1,1,-1
 275 400 l 1,2,-1
 225 400 l 1,3,-1
 225 450 l 1,0,-1
EndSplineSet
EndChar

StartChar: underscore
Encoding: 95 95 63
Width: 500
Flags: W
LayerCount: 2
Fore
SplineSet
225 50 m 1,0,-1
 275 50 l 1,1,-1
 275 0 l 1,2,-1
 225 0 l 1,3,-1
 225 50 l 1,0,-1
EndSplineSet
EndChar

StartChar: grave
Encoding: 96 96 64
Width: 500
Flags: W
LayerCount: 2
Fore
SplineSet
25 250 m 1,0,-1
 75 250 l 1,1,-1
 75 200 l 1,2,-1
 25 200 l 1,3,-1
 25 250 l 1,0,-1
EndSplineSet
EndChar

StartChar: a
Encoding: 97 97 65
Width: 0
Flags: W
AnchorPoint: "vowel" -250 225 mark 0
LayerCount: 2
Fore
SplineSet
-475 650 m 1,0,-1
 -425 650 l 1,1,-1
 -400 625 l 1,2,-1
 -375 650 l 1,3,-1
 -325 650 l 1,4,-1
 -175 650 l 1,5,-1
 -125 650 l 1,6,-1
 -25 550 l 1,7,-1
 -25 500 l 1,8,-1
 -75 500 l 1,9,-1
 -175 600 l 1,10,-1
 -325 600 l 1,11,-1
 -350 575 l 1,12,-1
 -325 550 l 1,13,-1
 -225 450 l 1,14,-1
 -225 400 l 1,15,-1
 -275 400 l 1,16,-1
 -375 500 l 1,17,-1
 -400 525 l 1,18,-1
 -425 500 l 1,19,-1
 -475 500 l 1,20,-1
 -475 550 l 1,21,-1
 -450 575 l 1,22,-1
 -475 600 l 1,23,-1
 -475 650 l 1,0,-1
EndSplineSet
EndChar

StartChar: b
Encoding: 98 98 66
Width: 500
Flags: W
AnchorPoint: "vowel" 250 225 basechar 0
LayerCount: 2
Fore
SplineSet
125 450 m 1,0,-1
 325 450 l 1,1,-1
 375 450 l 1,2,-1
 475 350 l 1,3,-1
 475 300 l 1,4,-1
 425 300 l 1,5,-1
 325 400 l 1,6,-1
 175 400 l 1,7,-1
 75 300 l 1,8,-1
 75 150 l 1,9,-1
 175 50 l 1,10,-1
 325 50 l 1,11,-1
 425 150 l 1,12,-1
 475 150 l 1,13,-1
 475 100 l 1,14,-1
 375 0 l 1,15,-1
 125 0 l 1,16,-1
 25 100 l 1,17,-1
 25 300 l 1,18,-1
 25 350 l 1,19,-1
 125 450 l 1,0,-1
25 450 m 1,20,-1
 75 450 l 1,21,-1
 175 350 l 1,22,-1
 275 250 l 1,23,-1
 375 150 l 1,24,-1
 475 50 l 1,25,-1
 475 0 l 1,26,-1
 425 0 l 1,27,-1
 325 100 l 1,28,-1
 225 200 l 1,29,-1
 125 300 l 1,30,-1
 25 400 l 1,31,-1
 25 450 l 1,20,-1
EndSplineSet
EndChar

StartChar: c
Encoding: 99 99 67
Width: 500
Flags: W
AnchorPoint: "vowel" 250 225 basechar 0
LayerCount: 2
Fore
SplineSet
125 450 m 1,0,-1
 175 450 l 1,1,-1
 325 450 l 1,2,-1
 375 450 l 1,3,-1
 475 350 l 1,4,-1
 475 300 l 1,5,-1
 475 150 l 1,6,-1
 475 100 l 1,7,-1
 375 0 l 1,8,-1
 325 0 l 1,9,-1
 175 0 l 1,10,-1
 125 0 l 1,11,-1
 25 100 l 1,12,-1
 25 150 l 1,13,-1
 75 150 l 1,14,-1
 175 50 l 1,15,-1
 325 50 l 1,16,-1
 425 150 l 1,17,-1
 425 300 l 1,18,-1
 325 400 l 1,19,-1
 175 400 l 1,20,-1
 75 300 l 1,21,-1
 25 300 l 1,22,-1
 25 350 l 1,23,-1
 125 450 l 1,0,-1
25 450 m 1,24,-1
 75 450 l 1,25,-1
 175 350 l 1,26,-1
 275 250 l 1,27,-1
 375 150 l 1,28,-1
 475 50 l 1,29,-1
 475 0 l 1,30,-1
 425 0 l 1,31,-1
 325 100 l 1,32,-1
 225 200 l 1,33,-1
 125 300 l 1,34,-1
 25 400 l 1,35,-1
 25 450 l 1,24,-1
EndSplineSet
EndChar

StartChar: d
Encoding: 100 100 68
Width: 500
Flags: W
AnchorPoint: "vowel" 250 225 basechar 0
LayerCount: 2
Fore
SplineSet
125 450 m 1,0,-1
 175 450 l 1,1,-1
 175 400 l 1,2,-1
 75 300 l 1,3,-1
 75 150 l 1,4,-1
 175 50 l 1,5,-1
 325 50 l 1,6,-1
 425 150 l 1,7,-1
 425 300 l 1,8,-1
 325 400 l 1,9,-1
 325 450 l 1,10,-1
 375 450 l 1,11,-1
 475 350 l 1,12,-1
 475 300 l 1,13,-1
 475 150 l 1,14,-1
 475 100 l 1,15,-1
 375 0 l 1,16,-1
 325 0 l 1,17,-1
 175 0 l 1,18,-1
 125 0 l 1,19,-1
 25 100 l 1,20,-1
 25 150 l 1,21,-1
 25 300 l 1,22,-1
 25 350 l 1,23,-1
 125 450 l 1,0,-1
25 450 m 1,24,-1
 75 450 l 1,25,-1
 175 350 l 1,26,-1
 275 250 l 1,27,-1
 375 150 l 1,28,-1
 475 50 l 1,29,-1
 475 0 l 1,30,-1
 425 0 l 1,31,-1
 325 100 l 1,32,-1
 225 200 l 1,33,-1
 125 300 l 1,34,-1
 25 400 l 1,35,-1
 25 450 l 1,24,-1
EndSplineSet
EndChar

StartChar: e
Encoding: 101 101 69
Width: 0
Flags: W
AnchorPoint: "vowel" -250 225 mark 0
LayerCount: 2
Fore
SplineSet
-475 650 m 1,0,-1
 -425 650 l 1,1,-1
 -325 550 l 1,2,-1
 -225 450 l 1,3,-1
 -225 400 l 1,4,-1
 -275 400 l 1,5,-1
 -375 500 l 1,6,-1
 -475 600 l 1,7,-1
 -475 650 l 1,0,-1
EndSplineSet
EndChar

StartChar: f
Encoding: 102 102 70
Width: 500
Flags: W
AnchorPoint: "vowel" 250 225 basechar 0
LayerCount: 2
Fore
SplineSet
125 450 m 1,0,-1
 325 450 l 1,1,-1
 375 450 l 1,2,-1
 475 350 l 1,3,-1
 475 300 l 1,4,-1
 475 150 l 1,5,-1
 475 100 l 1,6,-1
 375 0 l 1,7,-1
 325 0 l 1,8,-1
 325 50 l 1,9,-1
 425 150 l 1,10,-1
 425 300 l 1,11,-1
 325 400 l 1,12,-1
 175 400 l 1,13,-1
 75 300 l 1,14,-1
 75 150 l 1,15,-1
 175 50 l 1,16,-1
 175 0 l 1,17,-1
 125 0 l 1,18,-1
 25 100 l 1,19,-1
 25 300 l 1,20,-1
 25 350 l 1,21,-1
 125 450 l 1,0,-1
EndSplineSet
EndChar

StartChar: g
Encoding: 103 103 71
Width: 500
Flags: W
AnchorPoint: "vowel" 250 225 basechar 0
LayerCount: 2
Fore
SplineSet
225 450 m 1,0,-1
 325 450 l 1,1,-1
 375 450 l 1,2,-1
 475 350 l 1,3,-1
 475 300 l 1,4,-1
 475 150 l 1,5,-1
 475 100 l 1,6,-1
 375 0 l 1,7,-1
 125 0 l 1,8,-1
 25 100 l 1,9,-1
 25 250 l 1,10,-1
 75 250 l 1,11,-1
 75 150 l 1,12,-1
 175 50 l 1,13,-1
 325 50 l 1,14,-1
 425 150 l 1,15,-1
 425 300 l 1,16,-1
 325 400 l 1,17,-1
 225 400 l 1,18,-1
 225 450 l 1,0,-1
25 450 m 1,19,-1
 75 450 l 1,20,-1
 175 350 l 1,21,-1
 275 250 l 1,22,-1
 375 150 l 1,23,-1
 475 50 l 1,24,-1
 475 0 l 1,25,-1
 425 0 l 1,26,-1
 325 100 l 1,27,-1
 225 200 l 1,28,-1
 125 300 l 1,29,-1
 25 400 l 1,30,-1
 25 450 l 1,19,-1
EndSplineSet
EndChar

StartChar: h
Encoding: 104 104 72
Width: 500
Flags: W
AnchorPoint: "vowel" 250 225 basechar 0
LayerCount: 2
Fore
SplineSet
125 450 m 1,0,-1
 325 450 l 1,1,-1
 375 450 l 1,2,-1
 475 350 l 1,3,-1
 475 300 l 1,4,-1
 475 150 l 1,5,-1
 475 100 l 1,6,-1
 375 0 l 1,7,-1
 225 0 l 1,8,-1
 225 50 l 1,9,-1
 325 50 l 1,10,-1
 425 150 l 1,11,-1
 425 300 l 1,12,-1
 325 400 l 1,13,-1
 175 400 l 1,14,-1
 75 300 l 1,15,-1
 75 200 l 1,16,-1
 25 200 l 1,17,-1
 25 300 l 1,18,-1
 25 350 l 1,19,-1
 125 450 l 1,0,-1
EndSplineSet
EndChar

StartChar: i
Encoding: 105 105 73
Width: 0
Flags: W
AnchorPoint: "vowel" -250 225 mark 0
LayerCount: 2
Fore
SplineSet
-375 650 m 1,0,-1
 -325 650 l 1,1,-1
 -175 650 l 1,2,-1
 -125 650 l 1,3,-1
 -25 550 l 1,4,-1
 -25 500 l 1,5,-1
 -75 500 l 1,6,-1
 -175 600 l 1,7,-1
 -325 600 l 1,8,-1
 -425 500 l 1,9,-1
 -475 500 l 1,10,-1
 -475 550 l 1,11,-1
 -375 650 l 1,0,-1
EndSplineSet
EndChar

StartChar: j
Encoding: 106 106 74
Width: 500
Flags: W
AnchorPoint: "vowel" 250 225 basechar 0
LayerCount: 2
Fore
SplineSet
125 450 m 1,0,-1
 175 450 l 1,1,-1
 275 450 l 1,2,-1
 275 400 l 1,3,-1
 175 400 l 1,4,-1
 75 300 l 1,5,-1
 75 150 l 1,6,-1
 175 50 l 1,7,-1
 325 50 l 1,8,-1
 425 150 l 1,9,-1
 425 250 l 1,10,-1
 475 250 l 1,11,-1
 475 150 l 1,12,-1
 475 100 l 1,13,-1
 375 0 l 1,14,-1
 325 0 l 1,15,-1
 175 0 l 1,16,-1
 125 0 l 1,17,-1
 25 100 l 1,18,-1
 25 150 l 1,19,-1
 25 300 l 1,20,-1
 25 350 l 1,21,-1
 125 450 l 1,0,-1
25 450 m 1,22,-1
 75 450 l 1,23,-1
 175 350 l 1,24,-1
 275 250 l 1,25,-1
 375 150 l 1,26,-1
 475 50 l 1,27,-1
 475 0 l 1,28,-1
 425 0 l 1,29,-1
 325 100 l 1,30,-1
 225 200 l 1,31,-1
 125 300 l 1,32,-1
 25 400 l 1,33,-1
 25 450 l 1,22,-1
125 350 m 1,34,-1
 175 350 l 1,35,-1
 375 350 l 1,36,-1
 375 300 l 1,37,-1
 375 150 l 1,38,-1
 375 100 l 1,39,-1
 325 100 l 1,40,-1
 125 100 l 1,41,-1
 125 150 l 1,42,-1
 125 300 l 1,43,-1
 125 350 l 1,34,-1
175 300 m 1,44,-1
 175 150 l 1,45,-1
 325 150 l 1,46,-1
 325 300 l 1,47,-1
 175 300 l 1,44,-1
EndSplineSet
EndChar

StartChar: k
Encoding: 107 107 75
Width: 500
Flags: W
AnchorPoint: "vowel" 250 225 basechar 0
LayerCount: 2
Fore
SplineSet
225 450 m 1,0,-1
 325 450 l 1,1,-1
 375 450 l 1,2,-1
 475 350 l 1,3,-1
 475 300 l 1,4,-1
 475 150 l 1,5,-1
 475 100 l 1,6,-1
 375 0 l 1,7,-1
 125 0 l 1,8,-1
 25 100 l 1,9,-1
 25 250 l 1,10,-1
 75 250 l 1,11,-1
 75 150 l 1,12,-1
 175 50 l 1,13,-1
 325 50 l 1,14,-1
 425 150 l 1,15,-1
 425 300 l 1,16,-1
 325 400 l 1,17,-1
 225 400 l 1,18,-1
 225 450 l 1,0,-1
EndSplineSet
EndChar

StartChar: l
Encoding: 108 108 76
Width: 500
Flags: W
AnchorPoint: "vowel" 250 225 basechar 0
LayerCount: 2
Fore
SplineSet
125 450 m 1,0,-1
 325 450 l 1,1,-1
 375 450 l 1,2,-1
 475 350 l 1,3,-1
 475 300 l 1,4,-1
 475 150 l 1,5,-1
 475 100 l 1,6,-1
 375 0 l 1,7,-1
 125 0 l 1,8,-1
 25 100 l 1,9,-1
 25 300 l 1,10,-1
 25 350 l 1,11,-1
 125 450 l 1,0,-1
175 400 m 1,12,-1
 75 300 l 1,13,-1
 75 150 l 1,14,-1
 175 50 l 1,15,-1
 325 50 l 1,16,-1
 425 150 l 1,17,-1
 425 300 l 1,18,-1
 325 400 l 1,19,-1
 175 400 l 1,12,-1
25 450 m 1,20,-1
 75 450 l 1,21,-1
 175 350 l 1,22,-1
 275 250 l 1,23,-1
 375 150 l 1,24,-1
 475 50 l 1,25,-1
 475 0 l 1,26,-1
 425 0 l 1,27,-1
 325 100 l 1,28,-1
 225 200 l 1,29,-1
 125 300 l 1,30,-1
 25 400 l 1,31,-1
 25 450 l 1,20,-1
EndSplineSet
EndChar

StartChar: m
Encoding: 109 109 77
Width: 500
Flags: W
AnchorPoint: "vowel" 250 225 basechar 0
LayerCount: 2
Fore
SplineSet
125 450 m 1,0,-1
 175 450 l 1,1,-1
 325 450 l 1,2,-1
 375 450 l 1,3,-1
 475 350 l 1,4,-1
 475 300 l 1,5,-1
 475 200 l 1,6,-1
 425 200 l 1,7,-1
 425 300 l 1,8,-1
 325 400 l 1,9,-1
 175 400 l 1,10,-1
 75 300 l 1,11,-1
 75 150 l 1,12,-1
 175 50 l 1,13,-1
 275 50 l 1,14,-1
 275 0 l 1,15,-1
 175 0 l 1,16,-1
 125 0 l 1,17,-1
 25 100 l 1,18,-1
 25 150 l 1,19,-1
 25 300 l 1,20,-1
 25 350 l 1,21,-1
 125 450 l 1,0,-1
EndSplineSet
EndChar

StartChar: n
Encoding: 110 110 78
Width: 500
Flags: W
AnchorPoint: "vowel" 250 225 basechar 0
LayerCount: 2
Fore
SplineSet
125 450 m 1,0,-1
 175 450 l 1,1,-1
 325 450 l 1,2,-1
 375 450 l 1,3,-1
 475 350 l 1,4,-1
 475 300 l 1,5,-1
 475 200 l 1,6,-1
 425 200 l 1,7,-1
 425 300 l 1,8,-1
 325 400 l 1,9,-1
 175 400 l 1,10,-1
 75 300 l 1,11,-1
 75 150 l 1,12,-1
 175 50 l 1,13,-1
 275 50 l 1,14,-1
 275 0 l 1,15,-1
 175 0 l 1,16,-1
 125 0 l 1,17,-1
 25 100 l 1,18,-1
 25 150 l 1,19,-1
 25 300 l 1,20,-1
 25 350 l 1,21,-1
 125 450 l 1,0,-1
25 450 m 1,22,-1
 75 450 l 1,23,-1
 175 350 l 1,24,-1
 275 250 l 1,25,-1
 375 150 l 1,26,-1
 475 50 l 1,27,-1
 475 0 l 1,28,-1
 425 0 l 1,29,-1
 325 100 l 1,30,-1
 225 200 l 1,31,-1
 125 300 l 1,32,-1
 25 400 l 1,33,-1
 25 450 l 1,22,-1
EndSplineSet
EndChar

StartChar: o
Encoding: 111 111 79
Width: 0
Flags: W
AnchorPoint: "vowel" -250 225 mark 0
LayerCount: 2
Fore
SplineSet
-275 50 m 1,0,-1
 -225 50 l 1,1,-1
 -125 -50 l 1,2,-1
 -100 -75 l 1,3,-1
 -75 -50 l 1,4,-1
 -25 -50 l 1,5,-1
 -25 -100 l 1,6,-1
 -50 -125 l 1,7,-1
 -25 -150 l 1,8,-1
 -25 -200 l 1,9,-1
 -75 -200 l 1,10,-1
 -100 -175 l 1,11,-1
 -125 -200 l 1,12,-1
 -175 -200 l 1,13,-1
 -325 -200 l 1,14,-1
 -375 -200 l 1,15,-1
 -475 -100 l 1,16,-1
 -475 -50 l 1,17,-1
 -425 -50 l 1,18,-1
 -325 -150 l 1,19,-1
 -175 -150 l 1,20,-1
 -150 -125 l 1,21,-1
 -175 -100 l 1,22,-1
 -275 0 l 1,23,-1
 -275 50 l 1,0,-1
EndSplineSet
EndChar

StartChar: p
Encoding: 112 112 80
Width: 500
Flags: W
AnchorPoint: "vowel" 250 225 basechar 0
LayerCount: 2
Fore
SplineSet
125 450 m 1,0,-1
 325 450 l 1,1,-1
 375 450 l 1,2,-1
 475 350 l 1,3,-1
 475 300 l 1,4,-1
 425 300 l 1,5,-1
 325 400 l 1,6,-1
 175 400 l 1,7,-1
 75 300 l 1,8,-1
 75 150 l 1,9,-1
 175 50 l 1,10,-1
 325 50 l 1,11,-1
 425 150 l 1,12,-1
 475 150 l 1,13,-1
 475 100 l 1,14,-1
 375 0 l 1,15,-1
 125 0 l 1,16,-1
 25 100 l 1,17,-1
 25 300 l 1,18,-1
 25 350 l 1,19,-1
 125 450 l 1,0,-1
EndSplineSet
EndChar

StartChar: q
Encoding: 113 113 81
Width: 500
Flags: W
AnchorPoint: "vowel" 250 225 basechar 0
LayerCount: 2
Fore
SplineSet
125 450 m 1,0,-1
 175 450 l 1,1,-1
 325 450 l 1,2,-1
 375 450 l 1,3,-1
 475 350 l 1,4,-1
 475 300 l 1,5,-1
 475 150 l 1,6,-1
 475 100 l 1,7,-1
 375 0 l 1,8,-1
 325 0 l 1,9,-1
 175 0 l 1,10,-1
 125 0 l 1,11,-1
 25 100 l 1,12,-1
 25 150 l 1,13,-1
 75 150 l 1,14,-1
 175 50 l 1,15,-1
 325 50 l 1,16,-1
 425 150 l 1,17,-1
 425 300 l 1,18,-1
 325 400 l 1,19,-1
 175 400 l 1,20,-1
 75 300 l 1,21,-1
 25 300 l 1,22,-1
 25 350 l 1,23,-1
 125 450 l 1,0,-1
EndSplineSet
EndChar

StartChar: r
Encoding: 114 114 82
Width: 500
Flags: W
AnchorPoint: "vowel" 250 225 basechar 0
LayerCount: 2
Fore
SplineSet
125 450 m 1,0,-1
 325 450 l 1,1,-1
 375 450 l 1,2,-1
 475 350 l 1,3,-1
 475 300 l 1,4,-1
 475 150 l 1,5,-1
 475 100 l 1,6,-1
 375 0 l 1,7,-1
 125 0 l 1,8,-1
 25 100 l 1,9,-1
 25 300 l 1,10,-1
 25 350 l 1,11,-1
 125 450 l 1,0,-1
175 400 m 1,12,-1
 75 300 l 1,13,-1
 75 150 l 1,14,-1
 175 50 l 1,15,-1
 325 50 l 1,16,-1
 425 150 l 1,17,-1
 425 300 l 1,18,-1
 325 400 l 1,19,-1
 175 400 l 1,12,-1
EndSplineSet
EndChar

StartChar: s
Encoding: 115 115 83
Width: 500
Flags: W
AnchorPoint: "vowel" 250 225 basechar 0
LayerCount: 2
Fore
SplineSet
125 450 m 1,0,-1
 175 450 l 1,1,-1
 275 450 l 1,2,-1
 275 400 l 1,3,-1
 175 400 l 1,4,-1
 75 300 l 1,5,-1
 75 150 l 1,6,-1
 175 50 l 1,7,-1
 325 50 l 1,8,-1
 425 150 l 1,9,-1
 425 250 l 1,10,-1
 475 250 l 1,11,-1
 475 150 l 1,12,-1
 475 100 l 1,13,-1
 375 0 l 1,14,-1
 325 0 l 1,15,-1
 175 0 l 1,16,-1
 125 0 l 1,17,-1
 25 100 l 1,18,-1
 25 150 l 1,19,-1
 25 300 l 1,20,-1
 25 350 l 1,21,-1
 125 450 l 1,0,-1
EndSplineSet
EndChar

StartChar: t
Encoding: 116 116 84
Width: 500
Flags: W
AnchorPoint: "vowel" 250 225 basechar 0
LayerCount: 2
Fore
SplineSet
125 450 m 1,0,-1
 175 450 l 1,1,-1
 175 400 l 1,2,-1
 75 300 l 1,3,-1
 75 150 l 1,4,-1
 175 50 l 1,5,-1
 325 50 l 1,6,-1
 425 150 l 1,7,-1
 425 300 l 1,8,-1
 325 400 l 1,9,-1
 325 450 l 1,10,-1
 375 450 l 1,11,-1
 475 350 l 1,12,-1
 475 300 l 1,13,-1
 475 150 l 1,14,-1
 475 100 l 1,15,-1
 375 0 l 1,16,-1
 325 0 l 1,17,-1
 175 0 l 1,18,-1
 125 0 l 1,19,-1
 25 100 l 1,20,-1
 25 150 l 1,21,-1
 25 300 l 1,22,-1
 25 350 l 1,23,-1
 125 450 l 1,0,-1
EndSplineSet
EndChar

StartChar: u
Encoding: 117 117 85
Width: 0
Flags: W
AnchorPoint: "vowel" -250 225 mark 0
LayerCount: 2
Fore
SplineSet
-275 50 m 1,0,-1
 -225 50 l 1,1,-1
 -125 -50 l 1,2,-1
 -25 -150 l 1,3,-1
 -25 -200 l 1,4,-1
 -75 -200 l 1,5,-1
 -175 -100 l 1,6,-1
 -275 0 l 1,7,-1
 -275 50 l 1,0,-1
EndSplineSet
EndChar

StartChar: v
Encoding: 118 118 86
Width: 500
Flags: W
AnchorPoint: "vowel" 250 225 basechar 0
LayerCount: 2
Fore
SplineSet
125 450 m 1,0,-1
 325 450 l 1,1,-1
 375 450 l 1,2,-1
 475 350 l 1,3,-1
 475 300 l 1,4,-1
 475 150 l 1,5,-1
 475 100 l 1,6,-1
 375 0 l 1,7,-1
 325 0 l 1,8,-1
 325 50 l 1,9,-1
 425 150 l 1,10,-1
 425 300 l 1,11,-1
 325 400 l 1,12,-1
 175 400 l 1,13,-1
 75 300 l 1,14,-1
 75 150 l 1,15,-1
 175 50 l 1,16,-1
 175 0 l 1,17,-1
 125 0 l 1,18,-1
 25 100 l 1,19,-1
 25 300 l 1,20,-1
 25 350 l 1,21,-1
 125 450 l 1,0,-1
25 450 m 1,22,-1
 75 450 l 1,23,-1
 175 350 l 1,24,-1
 275 250 l 1,25,-1
 375 150 l 1,26,-1
 475 50 l 1,27,-1
 475 0 l 1,28,-1
 425 0 l 1,29,-1
 325 100 l 1,30,-1
 225 200 l 1,31,-1
 125 300 l 1,32,-1
 25 400 l 1,33,-1
 25 450 l 1,22,-1
EndSplineSet
EndChar

StartChar: w
Encoding: 119 119 87
Width: 0
Flags: W
AnchorPoint: "vowel" -250 225 mark 0
LayerCount: 2
Fore
SplineSet
-475 -50 m 1,0,-1
 -425 -50 l 1,1,-1
 -325 -150 l 1,2,-1
 -175 -150 l 1,3,-1
 -75 -50 l 1,4,-1
 -25 -50 l 1,5,-1
 -25 -100 l 1,6,-1
 -125 -200 l 1,7,-1
 -175 -200 l 1,8,-1
 -325 -200 l 1,9,-1
 -375 -200 l 1,10,-1
 -475 -100 l 1,11,-1
 -475 -50 l 1,0,-1
EndSplineSet
EndChar

StartChar: x
Encoding: 120 120 88
Width: 500
Flags: W
AnchorPoint: "vowel" 250 225 basechar 0
LayerCount: 2
Fore
SplineSet
125 450 m 1,0,-1
 325 450 l 1,1,-1
 375 450 l 1,2,-1
 475 350 l 1,3,-1
 475 300 l 1,4,-1
 475 150 l 1,5,-1
 475 100 l 1,6,-1
 375 0 l 1,7,-1
 225 0 l 1,8,-1
 225 50 l 1,9,-1
 325 50 l 1,10,-1
 425 150 l 1,11,-1
 425 300 l 1,12,-1
 325 400 l 1,13,-1
 175 400 l 1,14,-1
 75 300 l 1,15,-1
 75 200 l 1,16,-1
 25 200 l 1,17,-1
 25 300 l 1,18,-1
 25 350 l 1,19,-1
 125 450 l 1,0,-1
25 450 m 1,20,-1
 75 450 l 1,21,-1
 175 350 l 1,22,-1
 275 250 l 1,23,-1
 375 150 l 1,24,-1
 475 50 l 1,25,-1
 475 0 l 1,26,-1
 425 0 l 1,27,-1
 325 100 l 1,28,-1
 225 200 l 1,29,-1
 125 300 l 1,30,-1
 25 400 l 1,31,-1
 25 450 l 1,20,-1
EndSplineSet
EndChar

StartChar: y
Encoding: 121 121 89
Width: 500
Flags: W
AnchorPoint: "vowel" 250 225 basechar 0
LayerCount: 2
Fore
SplineSet
125 450 m 1,0,-1
 175 450 l 1,1,-1
 325 450 l 1,2,-1
 375 450 l 1,3,-1
 475 350 l 1,4,-1
 475 300 l 1,5,-1
 475 150 l 1,6,-1
 475 100 l 1,7,-1
 375 0 l 1,8,-1
 325 0 l 1,9,-1
 175 0 l 1,10,-1
 125 0 l 1,11,-1
 25 100 l 1,12,-1
 25 150 l 1,13,-1
 75 150 l 1,14,-1
 175 50 l 1,15,-1
 325 50 l 1,16,-1
 425 150 l 1,17,-1
 425 300 l 1,18,-1
 325 400 l 1,19,-1
 175 400 l 1,20,-1
 75 300 l 1,21,-1
 25 300 l 1,22,-1
 25 350 l 1,23,-1
 125 450 l 1,0,-1
25 450 m 1,24,-1
 75 450 l 1,25,-1
 175 350 l 1,26,-1
 275 250 l 1,27,-1
 375 150 l 1,28,-1
 475 50 l 1,29,-1
 475 0 l 1,30,-1
 425 0 l 1,31,-1
 325 100 l 1,32,-1
 225 200 l 1,33,-1
 125 300 l 1,34,-1
 25 400 l 1,35,-1
 25 450 l 1,24,-1
125 350 m 1,36,-1
 175 350 l 1,37,-1
 375 350 l 1,38,-1
 375 300 l 1,39,-1
 375 150 l 1,40,-1
 375 100 l 1,41,-1
 325 100 l 1,42,-1
 125 100 l 1,43,-1
 125 150 l 1,44,-1
 125 300 l 1,45,-1
 125 350 l 1,36,-1
175 300 m 1,46,-1
 175 150 l 1,47,-1
 325 150 l 1,48,-1
 325 300 l 1,49,-1
 175 300 l 1,46,-1
EndSplineSet
EndChar

StartChar: z
Encoding: 122 122 90
Width: 500
Flags: W
AnchorPoint: "vowel" 250 225 basechar 0
LayerCount: 2
Fore
SplineSet
125 450 m 1,0,-1
 175 450 l 1,1,-1
 275 450 l 1,2,-1
 275 400 l 1,3,-1
 175 400 l 1,4,-1
 75 300 l 1,5,-1
 75 150 l 1,6,-1
 175 50 l 1,7,-1
 325 50 l 1,8,-1
 425 150 l 1,9,-1
 425 250 l 1,10,-1
 475 250 l 1,11,-1
 475 150 l 1,12,-1
 475 100 l 1,13,-1
 375 0 l 1,14,-1
 325 0 l 1,15,-1
 175 0 l 1,16,-1
 125 0 l 1,17,-1
 25 100 l 1,18,-1
 25 150 l 1,19,-1
 25 300 l 1,20,-1
 25 350 l 1,21,-1
 125 450 l 1,0,-1
25 450 m 1,22,-1
 75 450 l 1,23,-1
 175 350 l 1,24,-1
 275 250 l 1,25,-1
 375 150 l 1,26,-1
 475 50 l 1,27,-1
 475 0 l 1,28,-1
 425 0 l 1,29,-1
 325 100 l 1,30,-1
 225 200 l 1,31,-1
 125 300 l 1,32,-1
 25 400 l 1,33,-1
 25 450 l 1,22,-1
EndSplineSet
EndChar

StartChar: braceleft
Encoding: 123 123 91
Width: 500
Flags: W
LayerCount: 2
Fore
SplineSet
375 550 m 1,0,-1
 375 500 l 1,1,-1
 225 500 l 1,2,-1
 225 550 l 1,3,-1
 375 550 l 1,0,-1
225 -100 m 1,4,-1
 225 -50 l 1,5,-1
 375 -50 l 1,6,-1
 375 -100 l 1,7,-1
 225 -100 l 1,4,-1
225 550 m 1,8,-1
 275 550 l 1,9,-1
 275 -100 l 1,10,-1
 225 -100 l 1,11,-1
 225 550 l 1,8,-1
125 250 m 1,12,-1
 275 250 l 1,13,-1
 275 200 l 1,14,-1
 125 200 l 1,15,-1
 125 250 l 1,12,-1
EndSplineSet
EndChar

StartChar: bar
Encoding: 124 124 92
Width: 500
Flags: W
LayerCount: 2
Fore
SplineSet
225 650 m 1,0,-1
 275 650 l 1,1,-1
 275 -200 l 1,2,-1
 225 -200 l 1,3,-1
 225 650 l 1,0,-1
EndSplineSet
EndChar

StartChar: braceright
Encoding: 125 125 93
Width: 500
Flags: W
LayerCount: 2
Fore
SplineSet
275 550 m 1,0,-1
 275 500 l 1,1,-1
 125 500 l 1,2,-1
 125 550 l 1,3,-1
 275 550 l 1,0,-1
125 -100 m 1,4,-1
 125 -50 l 1,5,-1
 275 -50 l 1,6,-1
 275 -100 l 1,7,-1
 125 -100 l 1,4,-1
225 550 m 1,8,-1
 275 550 l 1,9,-1
 275 -100 l 1,10,-1
 225 -100 l 1,11,-1
 225 550 l 1,8,-1
225 250 m 1,12,-1
 375 250 l 1,13,-1
 375 200 l 1,14,-1
 225 200 l 1,15,-1
 225 250 l 1,12,-1
EndSplineSet
EndChar

StartChar: asciitilde
Encoding: 126 126 94
Width: 500
Flags: W
LayerCount: 2
Fore
SplineSet
375 150 m 1,0,-1
 375 100 l 1,1,-1
 325 100 l 1,2,-1
 225 200 l 1,3,-1
 225 250 l 1,4,-1
 275 250 l 1,5,-1
 375 150 l 1,0,-1
325 150 m 1,6,-1
 425 250 l 1,7,-1
 475 250 l 1,8,-1
 475 200 l 1,9,-1
 375 100 l 1,10,-1
 325 100 l 1,11,-1
 325 150 l 1,6,-1
25 250 m 1,12,-1
 125 350 l 1,13,-1
 175 350 l 1,14,-1
 175 300 l 1,15,-1
 75 200 l 1,16,-1
 25 200 l 1,17,-1
 25 250 l 1,12,-1
275 250 m 1,18,-1
 275 200 l 1,19,-1
 225 200 l 1,20,-1
 125 300 l 1,21,-1
 125 350 l 1,22,-1
 175 350 l 1,23,-1
 275 250 l 1,18,-1
EndSplineSet
EndChar

StartChar: uni25CC
Encoding: 9676 9676 95
Width: 500
Flags: W
AnchorPoint: "vowel" 250 225 basechar 0
LayerCount: 2
Fore
SplineSet
25 450 m 1,0,-1
 75 450 l 1,1,-1
 100 425 l 1,2,-1
 125 450 l 1,3,-1
 175 450 l 1,4,-1
 325 450 l 1,5,-1
 375 450 l 1,6,-1
 475 350 l 1,7,-1
 475 300 l 1,8,-1
 425 300 l 1,9,-1
 375 350 l 1,10,-1
 325 400 l 1,11,-1
 175 400 l 1,12,-1
 150 375 l 1,13,-1
 175 350 l 1,14,-1
 375 350 l 1,15,-1
 375 300 l 1,16,-1
 375 150 l 1,17,-1
 400 125 l 1,18,-1
 425 150 l 1,19,-1
 475 150 l 1,20,-1
 475 100 l 1,21,-1
 450 75 l 1,22,-1
 475 50 l 1,23,-1
 475 0 l 1,24,-1
 425 0 l 1,25,-1
 400 25 l 1,26,-1
 375 0 l 1,27,-1
 175 0 l 1,28,-1
 125 0 l 1,29,-1
 25 100 l 1,30,-1
 25 150 l 1,31,-1
 75 150 l 1,32,-1
 125 100 l 1,33,-1
 175 50 l 1,34,-1
 325 50 l 1,35,-1
 350 75 l 1,36,-1
 325 100 l 1,37,-1
 125 100 l 1,38,-1
 125 150 l 1,39,-1
 125 300 l 1,40,-1
 100 325 l 1,41,-1
 75 300 l 1,42,-1
 25 300 l 1,43,-1
 25 350 l 1,44,-1
 50 375 l 1,45,-1
 25 400 l 1,46,-1
 25 450 l 1,0,-1
225 300 m 1,47,-1
 275 250 l 1,48,-1
 325 200 l 1,49,-1
 325 300 l 1,50,-1
 225 300 l 1,47,-1
175 250 m 1,51,-1
 175 150 l 1,52,-1
 275 150 l 1,53,-1
 225 200 l 1,54,-1
 175 250 l 1,51,-1
EndSplineSet
EndChar
